<svg  viewBox="0 0 512 512" width="54" height="78" xmlns="http://www.w3.org/2000/svg"><path d="m409.984375 123.378906 12.890625-7.730468c-2.742188-4.574219-5.800781-9-9.09375-13.15625l-11.777344 9.335937c2.886719 3.644531 5.574219 7.53125 7.980469 11.550781zm0 0"/><path d="m341.601562 89.253906c-23.910156-6.40625-48.886718-3.117187-70.328124 9.261719-44.257813 25.550781-59.476563 82.34375-33.921876 126.601563 12.378907 21.441406 32.363282 36.777343 56.277344 43.183593 7.984375 2.140625 16.085938 3.199219 24.136719 3.199219 16.058594 0 31.910156-4.214844 46.191406-12.460938 21.4375-12.375 36.773438-32.363281 43.183594-56.273437 6.40625-23.914063 3.117187-48.890625-9.261719-70.328125s-32.363281-36.773438-56.277344-43.183594zm51.019532 109.621094c-5.367188 20.035156-18.21875 36.78125-36.179688 47.152344-17.960937 10.371094-38.886718 13.125-58.925781 7.757812-20.035156-5.367187-36.777344-18.21875-47.148437-36.179687-21.410157-37.082031-8.660157-84.664063 28.421874-106.074219 11.964844-6.910156 25.242188-10.4375 38.699219-10.4375 6.742188 0 13.535157.886719 20.222657 2.679688 20.035156 5.367187 36.78125 18.21875 47.152343 36.179687 10.371094 17.960937 13.125 38.886719 7.757813 58.921875zm0 0"/><path d="m506.960938 431.589844-54.171876-93.832032-13.015624 7.515626 54.171874 93.832031c1.980469 3.425781 3.027344 7.3125 3.027344 11.242187 0 8.042969-4.324218 15.535156-11.277344 19.550782-3.429687 1.980468-7.316406 3.027343-11.246093 3.027343-8.042969 0-15.535157-4.324219-19.550781-11.277343l-75.398438-130.59375 39.046875-22.542969 13.710937 23.746093 13.015626-7.515624-21.226563-36.761719-13.015625 7.515625-13.585938-23.535156c26.867188-23.097657 42.886719-57.195313 42.886719-93.375 0-16.875-3.410156-33.265626-10.136719-48.71875l-13.777343 6c5.894531 13.546874 8.886719 27.917968 8.886719 42.71875 0 38.484374-20.628907 74.300781-53.835938 93.472656-16.324219 9.425781-34.878906 14.40625-53.660156 14.40625-38.484375 0-74.304688-20.625-93.472656-53.832032-9.425782-16.324218-14.40625-34.878906-14.40625-53.660156 0-38.488281 20.625-74.304687 53.832031-93.476562 16.324219-9.425782 34.878906-14.40625 53.660156-14.40625 27.863281 0 55.261719 11.054687 75.164063 30.335937l10.457031-10.796875c-22.683594-21.96875-53.890625-34.566406-85.621094-34.566406-21.414063 0-42.566406 5.675781-61.175781 16.421875-37.839844 21.84375-61.347656 62.648437-61.347656 106.488281 0 21.414063 5.679687 42.566406 16.421874 61.175782 21.847657 37.839843 62.652344 61.347656 106.488282 61.347656 13.851562 0 27.585937-2.390625 40.601562-6.972656l13.578125 23.515624-13.015625 7.515626 82.910156 143.609374c6.691407 11.589844 19.171876 18.789063 32.566407 18.789063 6.5625 0 13.050781-1.742187 18.761719-5.039063 11.589843-6.691406 18.789062-19.171874 18.789062-32.566406 0-6.5625-1.742188-13.050781-5.039062-18.757812zm-127.976563-146.515625c2.179687-1.257813 4.304687-2.585938 6.386719-3.96875l12.648437 21.90625-13.015625 7.511719-12.644531-21.898438c2.238281-1.117188 4.453125-2.296875 6.625-3.550781zm0 0"/><path d="m192.882812 312.625 10.027344-11.199219c-17.925781-16.046875-41.058594-24.886719-65.140625-24.886719-53.867187 0-97.691406 43.824219-97.691406 97.691407 0 53.867187 43.824219 97.691406 97.691406 97.691406 53.867188 0 97.691407-43.824219 97.691407-97.691406 0-22.105469-7.59375-43.769531-21.378907-61l-11.734375 9.394531c11.828125 14.78125 18.082032 32.628906 18.082032 51.605469 0 20.089843-7.210938 38.523437-19.167969 52.863281l-55.976563-55.976562v-79.203126c17.632813 1.601563 34.308594 8.8125 47.597656 20.710938zm-2.25 125.097656c-14.339843 11.960938-32.773437 19.167969-52.863281 19.167969-45.582031 0-82.660156-37.078125-82.660156-82.660156 0-43.042969 33.074219-78.492188 75.144531-82.304688v85.417969zm0 0"/><path d="m172.335938 162.316406h-55.105469v84.164063h55.105469zm-15.027344 69.136719h-25.050782v-54.105469h25.050782zm0 0"/><path d="m95.1875 62.121094h-55.109375v184.359375h55.109375zm-15.03125 169.332031h-25.046875v-154.300781h25.046875zm0 0"/><path d="m15.03125 15.03125h241.976562v-15.03125h-257.007812v339.15625h15.03125zm0 0"/><path d="m380.742188 426.832031h-70.136719v70.136719h-295.574219v-142.78125h-15.03125v157.8125h321.234375l74.539063-74.539062v-24.152344h-15.03125zm-55.105469 59.511719v-44.480469h44.480469zm0 0"/><path d="m380.742188 55.609375h15.03125v-55.609375h-123.738282v15.03125h108.707032zm0 0"/><path d="m331.277344 179.871094-27.140625-20.101563-38.640625 42.050781 11.066406 10.167969 29.492188-32.09375 26.964843 19.976563 41.652344-43.90625-10.902344-10.34375zm0 0"/><path d="m263.015625 351.6875h15.027344v15.027344h-15.027344zm0 0"/><path d="m293.074219 351.6875h50.097656v15.027344h-50.097656zm0 0"/><path d="m263.015625 381.746094h15.027344v15.027344h-15.027344zm0 0"/><path d="m293.074219 381.746094h50.097656v15.027344h-50.097656zm0 0"/><path d="m183.792969 105.097656 13.179687 7.230469c2.277344-4.15625 4.796875-8.234375 7.484375-12.121094l-12.359375-8.550781c-2.980468 4.3125-5.777344 8.835938-8.304687 13.441406zm0 0"/><path d="m233.828125 69.402344c3.75-2.867188 7.703125-5.578125 11.746094-8.058594l-7.855469-12.8125c-4.480469 2.746094-8.863281 5.753906-13.023438 8.933594zm0 0"/><path d="m222.980469 78.628906-10.320313-10.921875c-3.816406 3.605469-7.488281 7.457031-10.90625 11.441407l11.402344 9.789062c3.082031-3.589844 6.386719-7.058594 9.824219-10.308594zm0 0"/><path d="m424.816406 379.5 13.015625-7.511719 7.515625 13.015625-13.015625 7.511719zm0 0"/><path d="m439.847656 405.53125 13.015625-7.511719 7.515625 13.015625-13.015625 7.511719zm0 0"/><path d="m454.875 431.5625 13.015625-7.515625 7.515625 13.015625-13.015625 7.515625zm0 0"/></svg>