<svg id="Capa_1" enable-background="new 0 0 512 512" width="54" height="78" viewBox="0 0 512 512"  xmlns="http://www.w3.org/2000/svg"><g><path d="m256.229 25h-20.054c-4.143 0-7.5 3.358-7.5 7.5s3.357 7.5 7.5 7.5h20.054c4.143 0 7.5-3.358 7.5-7.5s-3.357-7.5-7.5-7.5z"/><path d="m280.632 40.052c4.143 0 7.5-3.358 7.5-7.5v-.104c0-4.142-3.357-7.5-7.5-7.5s-7.5 3.358-7.5 7.5v.104c0 4.142 3.357 7.5 7.5 7.5z"/><path d="m296.968 439.513h-77.128c-4.143 0-7.5 3.358-7.5 7.5s3.357 7.5 7.5 7.5h77.128c4.143 0 7.5-3.358 7.5-7.5s-3.358-7.5-7.5-7.5z"/><path d="m470.365 155.676c4.143 0 7.5-3.358 7.5-7.5v-27.277c0-9.649-7.851-17.5-17.5-17.5h-32.086v-7.569c0-9.649-7.851-17.5-17.5-17.5h-5.654v-40.83c0-20.678-16.822-37.5-37.5-37.5h-218.436c-20.678 0-37.5 16.822-37.5 37.5v40.83h-5.661c-9.649 0-17.5 7.851-17.5 17.5v39.463c0 9.649 7.851 17.5 17.5 17.5h5.661v7.447h-5.661c-9.649 0-17.5 7.851-17.5 17.5v39.463c0 9.649 7.851 17.5 17.5 17.5h5.661v17.429h-10.527c-4.143 0-7.5 3.358-7.5 7.5s3.357 7.5 7.5 7.5h91.654l-143.681 102.644v-100.144c0-1.378 1.121-2.5 2.5-2.5h16.041c4.143 0 7.5-3.358 7.5-7.5s-3.357-7.5-7.5-7.5h-16.041c-9.649 0-17.5 7.851-17.5 17.5v104.719c0 5.118 2.222 9.715 5.735 12.918.153.148.307.294.47.427 3.051 2.587 6.991 4.156 11.295 4.156h60.055v82.648c0 20.678 16.822 37.5 37.5 37.5h218.436c20.678 0 37.5-16.822 37.5-37.5v-156.475h55.24c9.649 0 17.5-7.851 17.5-17.5v-118.863c0-4.142-3.357-7.5-7.5-7.5s-7.5 3.358-7.5 7.5v63.407l-43.938-35.25c-5.903-4.735-14.011-5.121-20.288-1.143-7.423-22.702-28.776-38.749-53.498-38.749-18.016 0-35.022 8.781-45.545 23.216l-15.36-10.408c-6.075-4.119-14.151-3.989-20.093.322l-59.901 43.457v-105.615c0-1.378 1.121-2.5 2.5-2.5h253.623c1.379 0 2.5 1.122 2.5 2.5v27.277c-.001 4.142 3.357 7.5 7.499 7.5zm-59.586-62.346c1.379 0 2.5 1.122 2.5 2.5v7.569h-8.154v-10.069zm-304.751 44.463c-1.379 0-2.5-1.122-2.5-2.5v-39.463c0-1.378 1.121-2.5 2.5-2.5h5.661v44.463zm0 81.91c-1.379 0-2.5-1.122-2.5-2.5v-39.463c0-1.378 1.121-2.5 2.5-2.5h5.661v44.463zm177.87 83.322c.916-13.147 4.209-25.346 9.281-34.324 5.07 8.979 8.363 21.177 9.278 34.324zm-15.029 0h-20.437c1.049-19.7 6.176-38.014 14.245-50.574 4.422 6.888 8.028 15.616 10.527 25.451-2.317 7.739-3.801 16.236-4.335 25.123zm96.254 15v153.975h-213.43v-80.149h54.522c9.649 0 17.5-7.851 17.5-17.5v-56.325h141.408zm-300.088 58.826 143.681-102.644v100.144c0 1.378-1.121 2.5-2.5 2.5zm325.09 97.649c0 12.407-10.094 22.5-22.5 22.5h-218.436c-12.406 0-22.5-10.093-22.5-22.5v-82.649h10.004v82.649c0 6.893 5.607 12.5 12.5 12.5h218.43c6.893 0 12.5-5.607 12.5-12.5v-156.475h10.002zm6.044-171.475c.883-12.006 3.86-23.148 8.418-31.479 4.559 8.333 7.535 19.473 8.418 31.479zm-51.027-118.098c20.012 0 37.012 14.326 40.592 33.728l-22.499 17.61-51.198-34.691c7.743-10.354 20.057-16.647 33.105-16.647zm-72.19 10.271c.848-.615 2.001-.635 2.87-.045l83.524 56.596c2.696 1.827 6.265 1.704 8.83-.303l38.259-29.946c.918-.719 2.195-.712 3.105.019l53.324 42.781v36.225c0 1.378-1.121 2.5-2.5 2.5h-32.323c-1.106-17.541-6.074-33.509-14.01-44.623-2.169-3.037-5.699-4.851-9.443-4.852-.001 0-.001 0-.002 0-3.744 0-7.274 1.812-9.445 4.85-7.936 11.114-12.905 27.082-14.011 44.625h-63.644c-1.113-18.53-6.324-35.407-14.687-47.12-2.208-3.095-5.804-4.942-9.619-4.943-.001 0-.001 0-.002 0-3.814 0-7.41 1.847-9.619 4.94-.436.611-.854 1.25-1.273 1.888-2.573-6.109-5.589-11.636-8.976-16.38-2.44-3.418-6.416-5.459-10.633-5.46-.001 0-.001 0-.002 0-4.216 0-8.191 2.04-10.634 5.458-10.851 15.193-17.484 37.345-18.625 61.615h-9.702v-33.394c0-5.026-2.142-9.552-5.547-12.746-.249-.259-.511-.501-.789-.717-.023-.019-.045-.038-.068-.057-.002-.001-.004-.003-.005-.004-3.021-2.482-6.884-3.975-11.09-3.975h-1.974v-7.086zm-83.71-74.299v131.232h-37.549v-212.131h50.878l5.099 12.916c2.656 6.727 9.045 11.074 16.277 11.074h19.755c4.143 0 7.5-3.358 7.5-7.5s-3.357-7.5-7.5-7.5h-19.755c-1.033 0-1.946-.622-2.325-1.583l-5.724-14.498c-1.897-4.805-6.461-7.91-11.627-7.91h-55.078c-6.893 0-12.5 5.607-12.5 12.5v214.632h-10.004v-214.631c0-12.407 10.094-22.5 22.5-22.5h218.436c12.406 0 22.5 10.093 22.5 22.5v65.899h-10.002v-65.899c0-6.893-5.607-12.5-12.5-12.5h-55.088c-5.165 0-9.729 3.104-11.627 7.91l-5.722 14.497c-.38.962-1.293 1.583-2.326 1.583h-15.672c-4.143 0-7.5 3.358-7.5 7.5s3.357 7.5 7.5 7.5h15.672c7.232 0 13.621-4.347 16.278-11.075l5.098-12.915h50.887v63.399h-158.381c-9.649 0-17.5 7.851-17.5 17.5z"/><path d="m303.153 376.839h12.687c4.143 0 7.5-3.358 7.5-7.5s-3.357-7.5-7.5-7.5h-12.687c-4.143 0-7.5 3.358-7.5 7.5s3.358 7.5 7.5 7.5z"/><path d="m303.153 400.882h38.687c4.143 0 7.5-3.358 7.5-7.5s-3.357-7.5-7.5-7.5h-38.687c-4.143 0-7.5 3.358-7.5 7.5s3.358 7.5 7.5 7.5z"/><path d="m255.566 398.222c1.868 1.774 4.266 2.661 6.663 2.661s4.795-.887 6.664-2.661c5.926-5.628 17.544-21.712 17.544-33.386 0-13.304-10.824-24.244-24.128-24.386-.053-.001-.107-.001-.16 0-13.304.142-24.128 11.082-24.128 24.386 0 11.673 11.619 27.757 17.545 33.386zm6.663-42.772c5.085.097 9.208 4.291 9.208 9.385 0 3.557-4.168 12.05-9.208 18.437-5.04-6.387-9.208-14.88-9.208-18.437 0-5.095 4.124-9.288 9.208-9.385z"/><path d="m225.873 177.375v.105c0 4.142 3.357 7.5 7.5 7.5s7.5-3.358 7.5-7.5v-.105c0-4.142-3.357-7.5-7.5-7.5s-7.5 3.357-7.5 7.5z"/><path d="m410.232 190.58c4.143 0 7.5-3.358 7.5-7.5v-.105c0-4.142-3.357-7.5-7.5-7.5s-7.5 3.358-7.5 7.5v.105c0 4.142 3.358 7.5 7.5 7.5z"/><path d="m407.584 153.312v-.105c0-4.142-3.357-7.5-7.5-7.5s-7.5 3.358-7.5 7.5v.105c0 4.142 3.357 7.5 7.5 7.5s7.5-3.358 7.5-7.5z"/></g></svg>