<svg id="Capa_1" enable-background="new 0 0 512 512"  viewBox="0 0 512 512" width="54" height="78" xmlns="http://www.w3.org/2000/svg"><g><path d="m133.282 238.718h-.571v-10.192c13.33-6.772 21.969-20.552 21.969-35.812v-24.924c0-22.15-18.021-40.172-40.172-40.172h-15.006c-22.151 0-40.172 18.021-40.172 40.173v24.922c0 15.267 8.645 29.05 21.969 35.816v10.19h-.571c-18.298 0-33.186 14.885-33.186 33.182v66.723c0 6.893 5.607 12.5 12.5 12.5h93.925c6.893 0 12.5-5.607 12.5-12.5v-66.724c0-18.297-14.886-33.182-33.185-33.182zm-36.983-5.959c1.918.152 18.281.248 21.412 0v13.46c0 5.901-4.801 10.702-10.703 10.702-5.905 0-10.709-4.801-10.709-10.702zm-21.969-64.969c0-13.88 11.292-25.173 25.172-25.173h15.004c13.88 0 25.172 11.292 25.172 25.172v24.924c0 10.724-6.801 20.284-16.941 23.796-2.619.915-5.389 1.379-8.231 1.379h-15.004c-2.842 0-5.612-.464-8.249-1.385-10.123-3.506-16.923-13.066-16.923-23.791zm77.137 168.332h-88.925v-64.223c0-10.025 8.158-18.182 18.185-18.182h1.692c3.218 10.525 13.023 18.203 24.59 18.203 11.564 0 21.366-7.678 24.584-18.203h1.691c10.027 0 18.184 8.156 18.184 18.181v64.224z"/><path d="m456.958 290.41c4.142 0 7.5-3.357 7.5-7.5v-11.011c0-18.297-14.887-33.182-33.187-33.182h-.571v-10.192c13.33-6.772 21.969-20.552 21.969-35.812v-24.924c0-22.15-18.021-40.172-40.172-40.172h-15.004c-22.151 0-40.172 18.021-40.172 40.173v24.922c0 15.262 8.639 29.041 21.969 35.813v10.192h-.571c-18.298 0-33.186 14.885-33.186 33.182v66.723c0 6.893 5.607 12.5 12.5 12.5h93.925c6.894 0 12.501-5.607 12.501-12.5v-20.712c0-4.143-3.358-7.5-7.5-7.5s-7.5 3.357-7.5 7.5v18.212h-88.926v-64.223c0-10.025 8.158-18.182 18.185-18.182h1.691c3.217 10.526 13.02 18.204 24.584 18.204 11.567 0 21.372-7.678 24.589-18.204h1.691c10.027 0 18.186 8.156 18.186 18.182v11.011c-.001 4.143 3.357 7.5 7.499 7.5zm-84.638-122.62c0-13.88 11.292-25.173 25.172-25.173h15.004c13.88 0 25.172 11.292 25.172 25.172v24.924c0 10.724-6.804 20.285-16.926 23.791l-.015.005c-2.619.915-5.389 1.379-8.231 1.379h-15.004c-2.842 0-5.612-.464-8.231-1.379l-.015-.005c-10.123-3.506-16.926-13.068-16.926-23.792zm32.672 89.132c-5.902 0-10.703-4.802-10.703-10.703v-13.456c1.896.148 18.341.24 21.412 0v13.456c-.001 5.901-4.805 10.703-10.709 10.703z"/><path d="m293.981 351.12h8.978c6.893 0 12.5-5.607 12.5-12.5v-66.72c0-18.296-14.885-33.181-33.18-33.181h-.572v-10.213c13.023-6.652 21.967-20.193 21.967-35.792v-17.359c21.128-14.395 34.393-37.091 36.592-62.384h13.704c4.142 0 7.5-3.357 7.5-7.5s-3.358-7.5-7.5-7.5h-13.721c-3.592-40.673-36.076-73.158-76.749-76.75v-13.721c0-4.143-3.358-7.5-7.5-7.5s-7.5 3.357-7.5 7.5v13.721c-40.673 3.592-73.157 36.077-76.749 76.75h-13.721c-4.142 0-7.5 3.357-7.5 7.5s3.358 7.5 7.5 7.5h13.704c2.199 25.293 15.465 47.989 36.592 62.384v17.359c0 15.6 8.943 29.141 21.967 35.792v10.213h-.572c-18.295 0-33.18 14.885-33.18 33.181v66.72c0 6.893 5.607 12.5 12.5 12.5h8.978l-22.666 26.561c-3.284 3.848-4.008 9.092-1.89 13.686 2.119 4.594 6.578 7.447 11.636 7.447h22.693v26.777c0 4.143 3.358 7.5 7.5 7.5s7.5-3.357 7.5-7.5v-29.277c0-6.893-5.607-12.5-12.5-12.5h-20.454l46.162-54.094 46.162 54.094h-20.454c-6.893 0-12.5 5.607-12.5 12.5v100.686h-26.416v-36.414c0-4.143-3.358-7.5-7.5-7.5s-7.5 3.357-7.5 7.5v38.914c0 6.893 5.607 12.5 12.5 12.5h31.416c6.893 0 12.5-5.607 12.5-12.5v-100.687h22.692c5.059 0 9.517-2.854 11.636-7.447 2.118-4.594 1.395-9.838-1.889-13.685zm-107.179-238.149h12.972c4.142 0 7.5-3.357 7.5-7.5s-3.358-7.5-7.5-7.5h-12.964c3.488-32.397 29.292-58.202 61.69-61.69v12.965c0 4.143 3.358 7.5 7.5 7.5s7.5-3.357 7.5-7.5v-12.966c32.398 3.488 58.202 29.293 61.69 61.69h-12.965c-4.142 0-7.5 3.357-7.5 7.5s3.358 7.5 7.5 7.5h12.972c-1.834 17.29-9.971 33.022-22.881 44.471-4.577-17.152-20.241-29.825-38.815-29.825h-15.002c-18.574 0-34.238 12.673-38.815 29.825-12.91-11.448-21.048-27.18-22.882-44.47zm36.523 54.818c0-13.88 11.292-25.173 25.173-25.173h15.002c13.881 0 25.173 11.293 25.173 25.173v24.925c0 13.88-11.292 25.173-25.173 25.173h-15.002c-13.881 0-25.173-11.293-25.173-25.173zm43.382 64.958v13.472c0 5.901-4.803 10.703-10.708 10.703s-10.708-4.802-10.708-10.703v-13.472c3.408.27 19.454.156 21.416 0zm-10.707 80.791c-3.756 0-7.309 1.639-9.747 4.496l-15.434 18.086h-19.279v-64.22c0-10.024 8.156-18.181 18.18-18.181h1.692c3.218 10.524 13.022 18.202 24.588 18.202s21.37-7.678 24.588-18.202h1.692c10.024 0 18.18 8.156 18.18 18.181v64.22h-19.278l-15.434-18.087c-2.44-2.856-5.992-4.495-9.748-4.495z"/></g></svg>
