<svg id="Capa_1" enable-background="new 0 0 512 512" height="80" viewBox="0 0 512 512" width="90" xmlns="http://www.w3.org/2000/svg"  fill="#FFF"><g><path d="m358.014 428.605h-9.39v-8.173c0-15.168-11.106-27.785-25.612-30.161-2.602-6.835-7.134-12.821-13.127-17.208-5.563-4.08-8.885-10.63-8.885-17.522v-54.129h19.42c6.848 0 12.419-5.571 12.419-12.42v-22.645c0-6.848-5.571-12.419-12.419-12.419h-1.92v-.777c0-10.972-4.06-21.406-11.286-29.462l21.787-51.491c3.177-7.509 2.385-16.048-2.119-22.844s-12.06-10.853-20.212-10.853h-6.54v-4.181c0-13.489-8.95-24.923-21.22-28.681v-12.29h4.76c12.633 0 22.91-10.277 22.91-22.909 0-12.627-10.277-22.9-22.91-22.9h-4.76v-2.23c0-12.632-10.277-22.909-22.91-22.909s-22.91 10.277-22.91 22.909v2.23h-4.76c-12.633 0-22.91 10.273-22.91 22.9 0 12.632 10.277 22.909 22.91 22.909h4.76v12.29c-12.27 3.758-21.22 15.192-21.22 28.681v4.181h-6.54c-8.152 0-15.708 4.057-20.212 10.853s-5.296 15.335-2.119 22.844l21.788 51.491c-7.226 8.055-11.287 18.489-11.287 29.462v.777h-1.92c-6.848 0-12.419 5.571-12.419 12.419v22.645c0 6.849 5.571 12.42 12.419 12.42h19.42v54.129c0 6.893-3.321 13.442-8.88 17.519-5.998 4.39-10.531 10.376-13.132 17.212-14.505 2.375-25.612 14.993-25.612 30.161v8.173h-9.39c-7.305 0-13.247 5.942-13.247 13.247v34.499c0 7.305 5.942 13.247 13.247 13.247h25.039c4.143 0 7.5-3.357 7.5-7.5s-3.357-7.5-7.5-7.5h-23.286v-30.993h200.521v30.993h-142.235c-4.143 0-7.5 3.357-7.5 7.5s3.357 7.5 7.5 7.5h143.988c7.305 0 13.247-5.942 13.247-13.247v-34.499c.001-7.305-5.942-13.248-13.246-13.248zm-129.684-350.254c-4.361 0-7.91-3.548-7.91-7.909 0-4.356 3.549-7.9 7.91-7.9h8.26c6.341 0 11.5-5.159 11.5-11.5v-5.73c0-4.361 3.549-7.909 7.91-7.909s7.91 3.548 7.91 7.909v5.73c0 6.341 5.159 11.5 11.5 11.5h8.26c4.361 0 7.91 3.544 7.91 7.9 0 4.361-3.549 7.909-7.91 7.909h-9.87c-5.453 0-9.89 4.437-9.89 9.891v16.09h-15.82v-16.09c0-5.454-4.437-9.891-9.89-9.891zm-1.46 55.97c0-8.266 6.72-14.99 14.979-14.99h28.301c8.26 0 14.979 6.725 14.979 14.99v4.181h-58.26v-4.181zm-29.248 23.32c1.743-2.63 4.553-4.139 7.708-4.139h101.34c3.155 0 5.965 1.509 7.708 4.139 1.743 2.631 2.038 5.807.809 8.712l-21.987 51.962h-74.4l-21.986-51.963c-1.23-2.905-.935-6.081.808-8.711zm10.878 95.51c0-7.42 2.813-14.471 7.808-19.844.073.001.144.008.217.008h78.951c.073 0 .144-.007.217-.008 4.995 5.373 7.808 12.424 7.808 19.844v.777h-95v-.777zm-14.339 15.778h6.8c.013 0 .025.002.039.002s.026-.002.039-.002h109.923c.013 0 .025.002.039.002s.026-.002.039-.002h6.8v17.483h-123.679zm16.823 116.23c9.402-6.894 15.016-17.966 15.016-29.618v-54.129h60v54.129c0 11.652 5.613 22.725 15.021 29.622 1.831 1.34 3.427 2.932 4.773 4.701h-99.586c1.346-1.77 2.943-3.363 4.776-4.705zm-32.608 35.274c0-8.584 6.983-15.568 15.567-15.568h124.113c8.584 0 15.567 6.984 15.567 15.568v8.173h-155.247z"/><path d="m512 120.291c0-4.426-2.208-8.518-5.905-10.946l-44.968-29.549c-4.029-2.649-9.169-2.871-13.413-.582-4.243 2.289-6.88 6.706-6.88 11.528v7.905h-31.24c-9.499 0-18.028 6.358-20.742 15.462l-6.486 21.762c-1.184 3.97 1.075 8.146 5.045 9.33 3.972 1.181 8.147-1.076 9.33-5.045l6.486-21.762c.833-2.795 3.451-4.747 6.367-4.747h38.74c4.143 0 7.5-3.357 7.5-7.5v-11.88l39.604 26.024-39.604 26.024v-11.88c0-4.143-3.357-7.5-7.5-7.5h-25.938c-4.622 0-8.772 3.094-10.092 7.522l-22.875 76.743c-.833 2.794-3.451 4.746-6.367 4.746h-28.614v-13.287h18.072c3.317 0 6.24-2.179 7.188-5.357l6.814-22.863c1.184-3.97-1.076-8.147-5.045-9.33-3.976-1.185-8.147 1.075-9.33 5.045l-5.218 17.506h-16.951c-5.807 0-10.53 4.724-10.53 10.53v22.227c0 5.807 4.724 10.53 10.53 10.53h33.084c9.499 0 18.028-6.357 20.742-15.461l21.924-73.55h15.106v7.905c0 4.821 2.636 9.239 6.88 11.528 4.244 2.291 9.384 2.065 13.412-.582l44.967-29.549c3.699-2.429 5.907-6.521 5.907-10.947z"/><path d="m162.022 230.946c5.807 0 10.53-4.724 10.53-10.53v-22.227c0-5.807-4.724-10.53-10.53-10.53h-16.951l-21.923-73.55c-2.714-9.104-11.243-15.462-20.742-15.462h-31.24v-7.905c0-4.822-2.637-9.239-6.88-11.528s-9.384-2.066-13.413.582l-44.968 29.549c-3.697 2.429-5.905 6.521-5.905 10.946 0 4.426 2.208 8.518 5.905 10.946l44.969 29.55c4.029 2.647 9.17 2.871 13.412.582 4.244-2.289 6.88-6.707 6.88-11.528v-7.905h15.106l21.924 73.55c2.714 9.104 11.243 15.461 20.742 15.461h33.084zm-39.451-19.746-22.875-76.74c-1.319-4.431-5.47-7.524-10.092-7.524h-25.938c-4.143 0-7.5 3.357-7.5 7.5v11.88l-39.604-26.024 39.604-26.024v11.881c0 4.143 3.357 7.5 7.5 7.5h38.74c2.916 0 5.534 1.952 6.367 4.747l23.52 78.907c.947 3.179 3.87 5.357 7.188 5.357h18.072v13.287h-28.614c-2.917-.001-5.535-1.953-6.368-4.747z"/><path d="m322.119 326.104c-4.143 0-7.5 3.357-7.5 7.5s3.357 7.5 7.5 7.5h1.976c4.143 0 7.5-3.357 7.5-7.5s-3.357-7.5-7.5-7.5z"/><path d="m354.866 341.104c4.143 0 7.5-3.357 7.5-7.5s-3.357-7.5-7.5-7.5h-1.976c-4.143 0-7.5 3.357-7.5 7.5s3.357 7.5 7.5 7.5z"/><path d="m385.638 326.104h-1.976c-4.143 0-7.5 3.357-7.5 7.5s3.357 7.5 7.5 7.5h1.976c4.143 0 7.5-3.357 7.5-7.5s-3.358-7.5-7.5-7.5z"/><path d="m416.409 326.104h-1.976c-4.143 0-7.5 3.357-7.5 7.5s3.357 7.5 7.5 7.5h1.976c4.143 0 7.5-3.357 7.5-7.5s-3.357-7.5-7.5-7.5z"/><path d="m447.181 326.104h-1.976c-4.143 0-7.5 3.357-7.5 7.5s3.357 7.5 7.5 7.5h1.976c4.143 0 7.5-3.357 7.5-7.5s-3.358-7.5-7.5-7.5z"/><path d="m488.856 310.462c-12.762 0-23.144 10.382-23.144 23.143 0 12.762 10.382 23.144 23.144 23.144s23.144-10.383 23.144-23.145c0-12.76-10.382-23.142-23.144-23.142zm0 31.286c-4.49 0-8.144-3.653-8.144-8.144s3.653-8.143 8.144-8.143 8.144 3.652 8.144 8.143-3.653 8.144-8.144 8.144z"/><path d="m189.881 341.104c4.143 0 7.5-3.357 7.5-7.5s-3.357-7.5-7.5-7.5h-1.976c-4.143 0-7.5 3.357-7.5 7.5s3.357 7.5 7.5 7.5z"/><path d="m157.134 326.104c-4.143 0-7.5 3.357-7.5 7.5s3.357 7.5 7.5 7.5h1.976c4.143 0 7.5-3.357 7.5-7.5s-3.357-7.5-7.5-7.5z"/><path d="m128.338 326.104h-1.976c-4.143 0-7.5 3.357-7.5 7.5s3.357 7.5 7.5 7.5h1.976c4.143 0 7.5-3.357 7.5-7.5s-3.358-7.5-7.5-7.5z"/><path d="m97.566 326.104h-1.976c-4.143 0-7.5 3.357-7.5 7.5s3.357 7.5 7.5 7.5h1.976c4.143 0 7.5-3.357 7.5-7.5s-3.357-7.5-7.5-7.5z"/><path d="m66.795 326.104h-1.976c-4.143 0-7.5 3.357-7.5 7.5s3.357 7.5 7.5 7.5h1.976c4.143 0 7.5-3.357 7.5-7.5s-3.357-7.5-7.5-7.5z"/><path d="m23.144 310.462c-12.762 0-23.144 10.382-23.144 23.142 0 12.762 10.382 23.144 23.144 23.144s23.144-10.382 23.144-23.144c-.001-12.76-10.383-23.142-23.144-23.142zm0 31.286c-4.49 0-8.144-3.653-8.144-8.144s3.653-8.143 8.144-8.143 8.144 3.652 8.144 8.143-3.654 8.144-8.144 8.144z"/></g></svg>