<?xml version="1.0" encoding="utf-8"?>
<!-- Generator: Adobe Illustrator 21.0.0, SVG Export Plug-In . SVG Version: 6.00 Build 0)  -->
<svg version="1.1" id="bold" xmlns="http://www.w3.org/2000/svg" xmlns:xlink="http://www.w3.org/1999/xlink" x="0px" y="0px"
	 viewBox="0 0 32 32" enable-background="new 0 0 32 32" xml:space="preserve" width="54" height="78" fill="#FFF">
<path d="M25,18c-3.859,0-7,3.14-7,7s3.141,7,7,7s7-3.14,7-7S28.859,18,25,18z M28.854,22.854l-5,5C23.756,27.951,23.628,28,23.5,28
	s-0.256-0.049-0.354-0.146l-2-2c-0.195-0.195-0.195-0.512,0-0.707s0.512-0.195,0.707,0l1.646,1.646l4.646-4.646
	c0.195-0.195,0.512-0.195,0.707,0S29.049,22.658,28.854,22.854z"/>
<path d="M29.5,2h-27C1.122,2,0,3.122,0,4.5v4C0,8.776,0.224,9,0.5,9h31C31.776,9,32,8.776,32,8.5v-4C32,3.122,30.879,2,29.5,2z"/>
<path d="M20.156,30H2.5C1.122,30,0,28.878,0,27.5v-19C0,8.224,0.224,8,0.5,8h31C31.776,8,32,8.224,32,8.5V25
	c0,0.276-0.224,0.5-0.5,0.5S31,25.276,31,25V9H1v18.5C1,28.327,1.673,29,2.5,29h17.656c0.276,0,0.5,0.224,0.5,0.5
	S20.433,30,20.156,30z"/>
<path d="M6.5,6C6.224,6,6,5.776,6,5.5V2c0-1.103,0.897-2,2-2s2,0.897,2,2v0.5C10,2.776,9.776,3,9.5,3S9,2.776,9,2.5V2
	c0-0.551-0.449-1-1-1S7,1.449,7,2v3.5C7,5.776,6.776,6,6.5,6z"/>
<path d="M25.5,6C25.224,6,25,5.776,25,5.5V2c0-1.103,0.897-2,2-2s2,0.897,2,2v0.5C29,2.776,28.776,3,28.5,3S28,2.776,28,2.5V2
	c0-0.551-0.448-1-1-1s-1,0.449-1,1v3.5C26,5.776,25.776,6,25.5,6z"/>
<path d="M13.5,11h-1c-0.827,0-1.5,0.673-1.5,1.5v1c0,0.827,0.673,1.5,1.5,1.5h1c0.827,0,1.5-0.673,1.5-1.5v-1
	C15,11.673,14.327,11,13.5,11z"/>
<path d="M19.5,11h-1c-0.827,0-1.5,0.673-1.5,1.5v1c0,0.827,0.673,1.5,1.5,1.5h1c0.827,0,1.5-0.673,1.5-1.5v-1
	C21,11.673,20.327,11,19.5,11z"/>
<path d="M25.5,11h-1c-0.827,0-1.5,0.673-1.5,1.5v1c0,0.827,0.673,1.5,1.5,1.5h1c0.827,0,1.5-0.673,1.5-1.5v-1
	C27,11.673,26.327,11,25.5,11z"/>
<path d="M7.5,17h-1C5.673,17,5,17.673,5,18.5v1C5,20.327,5.673,21,6.5,21h1C8.327,21,9,20.327,9,19.5v-1C9,17.673,8.327,17,7.5,17z"
	/>
<path d="M13.5,17h-1c-0.827,0-1.5,0.673-1.5,1.5v1c0,0.827,0.673,1.5,1.5,1.5h1c0.827,0,1.5-0.673,1.5-1.5v-1
	C15,17.673,14.327,17,13.5,17z"/>
<path d="M7.5,23h-1C5.673,23,5,23.673,5,24.5v1C5,26.327,5.673,27,6.5,27h1C8.327,27,9,26.327,9,25.5v-1C9,23.673,8.327,23,7.5,23z"
	/>
<path d="M13.5,23h-1c-0.827,0-1.5,0.673-1.5,1.5v1c0,0.827,0.673,1.5,1.5,1.5h1c0.827,0,1.5-0.673,1.5-1.5v-1
	C15,23.673,14.327,23,13.5,23z"/>
<path d="M19.5,17h-1c-0.827,0-1.5,0.673-1.5,1.5v1c0,0.827,0.673,1.5,1.5,1.5h1c0.827,0,1.5-0.673,1.5-1.5v-1
	C21,17.673,20.327,17,19.5,17z"/>
</svg>
