<?xml version="1.0" encoding="utf-8"?>
<!-- Generator: Adobe Illustrator 21.0.0, SVG Export Plug-In . SVG Version: 6.00 Build 0)  -->
<svg version="1.1" id="bold" xmlns="http://www.w3.org/2000/svg" xmlns:xlink="http://www.w3.org/1999/xlink" x="0px" y="0px"
	 viewBox="0 0 32 32" enable-background="new 0 0 32 32" xml:space="preserve" width="54" height="78">
<path d="M15.5,4h4C19.776,4,20,3.776,20,3.5S19.776,3,19.5,3h-4C15.224,3,15,3.224,15,3.5S15.224,4,15.5,4z"/>
<path d="M29.5,6h-14C15.224,6,15,6.224,15,6.5S15.224,7,15.5,7h14C29.776,7,30,6.776,30,6.5S29.776,6,29.5,6z"/>
<path d="M12.5,15h4c0.276,0,0.5-0.224,0.5-0.5S16.776,14,16.5,14h-4c-0.276,0-0.5,0.224-0.5,0.5S12.224,15,12.5,15z"/>
<path d="M12.5,18h14c0.276,0,0.5-0.224,0.5-0.5S26.776,17,26.5,17h-14c-0.276,0-0.5,0.224-0.5,0.5S12.224,18,12.5,18z"/>
<path d="M29.5,0h-24C4.12,0,3,1.12,3,2.5v5C3,8.88,4.12,10,5.5,10h24c1.38,0,2.5-1.12,2.5-2.5v-5C32,1.12,30.88,0,29.5,0z
	 M11.891,2.813l-4,5C7.802,7.923,7.669,7.991,7.528,7.999C7.519,8,7.509,8,7.5,8C7.368,8,7.24,7.948,7.146,7.854l-2-2
	c-0.195-0.195-0.195-0.512,0-0.707s0.512-0.195,0.707,0l1.605,1.605l3.651-4.564c0.173-0.214,0.488-0.25,0.703-0.078
	C12.028,2.282,12.063,2.597,11.891,2.813z M31,7.5C31,8.33,30.33,9,29.5,9H14V1h15.5C30.33,1,31,1.67,31,2.5V7.5z"/>
<path d="M29,18.5v-5c0-1.38-1.12-2.5-2.5-2.5h-24C1.12,11,0,12.12,0,13.5v5C0,19.88,1.12,21,2.5,21h24C27.88,21,29,19.88,29,18.5z
	 M8.891,13.813l-4,5c-0.089,0.111-0.221,0.179-0.363,0.187C4.519,19,4.509,19,4.5,19c-0.132,0-0.26-0.052-0.354-0.146l-2-2
	c-0.195-0.195-0.195-0.512,0-0.707s0.512-0.195,0.707,0l1.605,1.605l3.651-4.564c0.173-0.214,0.487-0.25,0.703-0.078
	C9.028,13.282,9.063,13.597,8.891,13.813z M11,12h15.5c0.83,0,1.5,0.67,1.5,1.5v5c0,0.83-0.67,1.5-1.5,1.5H11V12z"/>
<path d="M29.5,22h-24C4.12,22,3,23.12,3,24.5v5C3,30.88,4.12,32,5.5,32h24c1.38,0,2.5-1.12,2.5-2.5v-5C32,23.12,30.88,22,29.5,22z
	 M11.891,24.813l-4,5c-0.089,0.111-0.221,0.179-0.363,0.187C7.519,30,7.509,30,7.5,30c-0.132,0-0.26-0.052-0.354-0.146l-2-2
	c-0.195-0.195-0.195-0.512,0-0.707s0.512-0.195,0.707,0l1.605,1.605l3.651-4.564c0.173-0.214,0.488-0.25,0.703-0.078
	C12.028,24.282,12.063,24.597,11.891,24.813z M31,29.5c0,0.83-0.67,1.5-1.5,1.5H14v-8h15.5c0.83,0,1.5,0.67,1.5,1.5V29.5z"/>
<path d="M15.5,26h4c0.276,0,0.5-0.224,0.5-0.5S19.776,25,19.5,25h-4c-0.276,0-0.5,0.224-0.5,0.5S15.224,26,15.5,26z"/>
<path d="M29.5,28h-14c-0.276,0-0.5,0.224-0.5,0.5s0.224,0.5,0.5,0.5h14c0.276,0,0.5-0.224,0.5-0.5S29.776,28,29.5,28z"/>
</svg>
