<svg viewBox="-80 0 512 512" xmlns="http://www.w3.org/2000/svg" width="54" height="78" fill="#FFF"><path d="m264.449219 0h-264.449219v512h351.492188v-424.957031zm8.785156 51.214844 27.042969 27.039062h-27.042969zm-243.234375 430.785156v-452h213.238281v78.253906h78.253907v373.746094zm0 0"/><path d="m111.542969 232.300781-52.503907 52.503907 52.503907 52.503906 21.214843-21.210938-31.292968-31.292968 31.292968-31.292969zm0 0"/><path d="m218.734375 253.511719 31.292969 31.292969-31.292969 31.292968 21.210937 21.210938 52.503907-52.503906-52.503907-52.503907zm0 0"/><path d="m150.683594 326.777344 20.882812-90.691406 29.238282 6.730468-20.886719 90.695313zm0 0"/></svg>