<svg id="Capa_1" enable-background="new 0 0 512 512"  viewBox="0 0 512 512" width="54" height="78" xmlns="http://www.w3.org/2000/svg"><g><path d="m225.824 40c4.143 0 7.5-3.358 7.5-7.5s-3.357-7.5-7.5-7.5h-20.054c-4.143 0-7.5 3.358-7.5 7.5s3.357 7.5 7.5 7.5z"/><path d="m257.727 32.552v-.104c0-4.142-3.357-7.5-7.5-7.5s-7.5 3.358-7.5 7.5v.104c0 4.142 3.357 7.5 7.5 7.5s7.5-3.358 7.5-7.5z"/><path d="m189.436 439.513c-4.143 0-7.5 3.358-7.5 7.5s3.357 7.5 7.5 7.5h77.127c4.143 0 7.5-3.358 7.5-7.5s-3.357-7.5-7.5-7.5z"/><path d="m436.377 110.062h-38.503v-14.232c0-9.649-7.851-17.5-17.5-17.5h-5.654v-40.83c0-20.678-16.822-37.5-37.5-37.5h-218.436c-20.678 0-37.5 16.822-37.5 37.5v40.83h-5.661c-9.649 0-17.5 7.851-17.5 17.5v39.463c0 9.649 7.851 17.5 17.5 17.5h5.661v7.447h-5.661c-9.649 0-17.5 7.851-17.5 17.5v39.463c0 9.649 7.851 17.5 17.5 17.5h5.661v239.797c0 20.678 16.822 37.5 37.5 37.5h218.436c20.678 0 37.5-16.822 37.5-37.5v-118.205c0-4.142-3.357-7.5-7.5-7.5s-7.5 3.358-7.5 7.5v118.205c0 12.407-10.094 22.5-22.5 22.5h-218.436c-12.406 0-22.5-10.093-22.5-22.5v-437c0-12.407 10.094-22.5 22.5-22.5h218.436c12.406 0 22.5 10.093 22.5 22.5v72.562h-10.001v-72.562c0-6.893-5.607-12.5-12.5-12.5h-55.088c-5.166 0-9.729 3.104-11.628 7.91l-5.722 14.497c-.38.962-1.293 1.583-2.326 1.583h-68.913c-1.033 0-1.945-.621-2.325-1.583l-5.724-14.498c-1.897-4.805-6.461-7.909-11.626-7.909h-55.078c-6.893 0-12.5 5.607-12.5 12.5v437c0 6.893 5.607 12.5 12.5 12.5h24.404c4.143 0 7.5-3.358 7.5-7.5s-3.357-7.5-7.5-7.5h-21.904v-432h50.877l5.099 12.915c2.655 6.728 9.044 11.076 16.277 11.076h68.913c7.232 0 13.621-4.347 16.278-11.075l5.098-12.916h50.888v70.062h-22.496c-4.143 0-7.5 3.358-7.5 7.5s3.357 7.5 7.5 7.5h124.154c1.379 0 2.5 1.122 2.5 2.5v111.507c0 1.378-1.121 2.5-2.5 2.5h-185.288c-1.379 0-2.5-1.122-2.5-2.5v-111.507c0-1.378 1.121-2.5 2.5-2.5h27.648c4.143 0 7.5-3.358 7.5-7.5s-3.357-7.5-7.5-7.5h-27.648c-9.649 0-17.5 7.851-17.5 17.5v111.507c0 9.649 7.851 17.5 17.5 17.5h83.63v215.431h-158.039c-4.143 0-7.5 3.358-7.5 7.5s3.357 7.5 7.5 7.5h160.539c6.893 0 12.5-5.607 12.5-12.5v-217.931h10.001v66.24c0 4.142 3.357 7.5 7.5 7.5s7.5-3.358 7.5-7.5v-66.24h61.657c9.649 0 17.5-7.851 17.5-17.5v-111.507c0-9.65-7.851-17.5-17.5-17.5zm-360.754 27.731c-1.379 0-2.5-1.122-2.5-2.5v-39.463c0-1.378 1.121-2.5 2.5-2.5h5.661v44.463zm0 81.91c-1.379 0-2.5-1.122-2.5-2.5v-39.463c0-1.378 1.121-2.5 2.5-2.5h5.661v44.463zm299.097-126.373h5.654c1.379 0 2.5 1.122 2.5 2.5v14.231h-8.154z"/><path d="m312.366 153.281c-2.856-3.001-7.604-3.118-10.604-.263l-26.129 24.864c-1.488 1.416-2.33 3.379-2.33 5.433s.842 4.018 2.33 5.433l26.129 24.864c1.451 1.381 3.312 2.067 5.169 2.067 1.981 0 3.96-.781 5.435-2.33 2.854-3.001 2.737-7.748-.264-10.604l-20.419-19.431 20.419-19.431c3.002-2.854 3.12-7.601.264-10.602z"/><path d="m375.101 213.35c1.474 1.549 3.452 2.33 5.434 2.33 1.857 0 3.718-.686 5.169-2.067l26.128-24.864c1.488-1.416 2.33-3.379 2.33-5.433s-.842-4.018-2.33-5.433l-26.128-24.864c-2.999-2.855-7.747-2.738-10.603.263-2.855 3.001-2.738 7.748.263 10.604l20.418 19.431-20.418 19.431c-3.002 2.854-3.119 7.601-.263 10.602z"/><path d="m333.796 215.681c2.977 0 5.794-1.786 6.967-4.719l19.869-49.728c1.537-3.846-.336-8.21-4.182-9.748-3.845-1.535-8.21.335-9.748 4.182l-19.869 49.728c-1.537 3.846.336 8.21 4.182 9.748.913.364 1.854.537 2.781.537z"/><path d="m159.18 284.361c0-4.142-3.357-7.5-7.5-7.5s-7.5 3.358-7.5 7.5v.104c0 4.142 3.357 7.5 7.5 7.5s7.5-3.358 7.5-7.5z"/><path d="m214.431 276.965h-35.02c-4.143 0-7.5 3.358-7.5 7.5s3.357 7.5 7.5 7.5h35.02c4.143 0 7.5-3.358 7.5-7.5s-3.358-7.5-7.5-7.5z"/><path d="m159.18 316.254c0-4.142-3.357-7.5-7.5-7.5s-7.5 3.358-7.5 7.5v.104c0 4.142 3.357 7.5 7.5 7.5s7.5-3.358 7.5-7.5z"/><path d="m281.847 308.857h-102.436c-4.143 0-7.5 3.358-7.5 7.5s3.357 7.5 7.5 7.5h102.436c4.143 0 7.5-3.358 7.5-7.5s-3.358-7.5-7.5-7.5z"/><path d="m159.18 348.146c0-4.142-3.357-7.5-7.5-7.5s-7.5 3.358-7.5 7.5v.104c0 4.142 3.357 7.5 7.5 7.5s7.5-3.358 7.5-7.5z"/><path d="m304.318 340.75h-124.907c-4.143 0-7.5 3.358-7.5 7.5s3.357 7.5 7.5 7.5h124.907c4.143 0 7.5-3.358 7.5-7.5s-3.357-7.5-7.5-7.5z"/><path d="m151.68 372.539c-4.143 0-7.5 3.358-7.5 7.5v.104c0 4.142 3.357 7.5 7.5 7.5s7.5-3.358 7.5-7.5v-.104c0-4.142-3.358-7.5-7.5-7.5z"/><path d="m311.818 380.143c0-4.142-3.357-7.5-7.5-7.5h-124.907c-4.143 0-7.5 3.358-7.5 7.5s3.357 7.5 7.5 7.5h124.907c4.143 0 7.5-3.358 7.5-7.5z"/><path d="m218.447 232.572c0-4.142-3.357-7.5-7.5-7.5h-58.898c-4.143 0-7.5 3.358-7.5 7.5s3.357 7.5 7.5 7.5h58.898c4.143 0 7.5-3.358 7.5-7.5z"/><path d="m152.049 208.18h58.898c4.143 0 7.5-3.358 7.5-7.5s-3.357-7.5-7.5-7.5h-58.898c-4.143 0-7.5 3.358-7.5 7.5s3.357 7.5 7.5 7.5z"/><path d="m152.049 176.287h58.898c4.143 0 7.5-3.358 7.5-7.5s-3.357-7.5-7.5-7.5h-58.898c-4.143 0-7.5 3.358-7.5 7.5s3.357 7.5 7.5 7.5z"/><path d="m152.049 144.395h58.898c4.143 0 7.5-3.358 7.5-7.5s-3.357-7.5-7.5-7.5h-58.898c-4.143 0-7.5 3.358-7.5 7.5s3.357 7.5 7.5 7.5z"/></g></svg>