<svg  viewBox="-55 0 512 512" width="54" height="78"  xmlns="http://www.w3.org/2000/svg"><path d="m280.105469 51.992188 11.539062-9.625c-3.410156-4.09375-7.140625-7.992188-11.074219-11.585938l-10.136718 11.09375c3.4375 3.140625 6.691406 6.542969 9.671875 10.117188zm0 0"/><path d="m100.925781 179.453125 12.792969-7.890625c-2.445312-3.960938-4.636719-8.121094-6.511719-12.367188l-13.746093 6.074219c2.152343 4.871094 4.664062 9.644531 7.464843 14.183594zm0 0"/><path d="m102.445312 146.046875c-2.621093-9.164063-3.949218-18.691406-3.949218-28.316406 0-56.628907 46.070312-102.699219 102.699218-102.699219 20.957032 0 41.109376 6.265625 58.285157 18.128906l8.539062-12.367187c-19.695312-13.601563-42.804687-20.792969-66.824219-20.792969-64.917968 0-117.730468 52.8125-117.730468 117.730469 0 11.023437 1.523437 21.945312 4.53125 32.453125zm0 0"/><path d="m393.507812 228.980469c-2.980468-.820313-6.328124-1.632813-9.679687-2.34375-7.457031-1.585938-19.144531-3.582031-32.484375-4.082031l-.5625 15.019531c14.800781.554687 27.546875 3.109375 34.941406 4.917969-4.785156 16.382812-19.859375 57.988281-53.75 77.484374-14.613281 8.410157-32.613281 12.671876-53.492187 12.671876-17.261719 0-32.433594-2.988282-40.78125-5.027344 4.785156-16.386719 19.859375-57.988282 53.753906-77.484375 12.558594-7.226563 27.707031-11.40625 45.023437-12.425781l-.882812-15.003907c-19.664062 1.15625-37.039062 6-51.636719 14.402344-43.117187 24.804687-58.820312 78.300781-62.09375 91.394531l-13.152343 7.59375v-100.882812c61.425781-3.890625 110.214843-55.09375 110.214843-117.484375 0-22.136719-6.179687-43.707031-17.871093-62.386719l-12.738282 7.976562c10.191406 16.28125 15.578125 35.097657 15.578125 54.410157 0 56.628906-46.070312 102.699219-102.699219 102.699219-30.820312 0-59.738281-13.664063-79.34375-37.488282l-11.605468 9.550782c20.871094 25.359374 50.953125 40.667968 83.433594 42.722656v100.882812l-13.152344-7.59375c-3.273438-13.09375-18.976563-66.589844-62.09375-91.394531-14.597656-8.398437-31.972656-13.246094-51.640625-14.402344l-.882813 15.003907c17.320313 1.019531 32.46875 5.199218 45.027344 12.425781 33.796875 19.445312 48.933594 61.105469 53.742188 77.492187-8.324219 2.039063-23.445313 5.019532-40.769532 5.019532-20.882812 0-38.878906-4.261719-53.492187-12.667969-33.792969-19.445313-48.929688-61.097657-53.742188-77.488281 7.394531-1.8125 20.140625-4.363282 34.933594-4.917969l-.566406-15.015625c-13.339844.5-25.027344 2.492187-32.480469 4.078125-3.355469.714843-6.703125 1.523437-9.683594 2.34375-4.003906 1.101562-8.988281 2.472656-8.878906 8.371093l.015625.710938.144531.695312c.570313 2.699219 14.472656 66.464844 62.761719 94.246094 16.925781 9.738282 37.441406 14.675782 60.988281 14.675782 22.144532 0 40.769532-4.394532 48.480469-6.519532l21.289063 12.289063v23.285156h-75.144532v55.109375h16.675782l20.039062 80.15625h91.890625l20.039063-80.15625h16.675781v-55.109375h-75.144531v-23.285156l21.285156-12.289063c7.714844 2.125 26.339844 6.519532 48.480468 6.519532 23.546876 0 44.066407-4.9375 60.988282-14.675782 48.289062-27.78125 62.195312-91.546875 62.761718-94.246094l.148438-.695312.011719-.710938c.109375-5.898437-4.875-7.269531-8.878907-8.371093zm-124.679687 162.785156v25.046875h-77.652344v15.03125h60.511719l-16.28125 65.125h-68.421875l-16.28125-65.125h25.441406v-15.03125h-42.582031v-25.046875zm0 0"/><path d="m208.710938 187.867188v-22.542969h7.511718c15.195313 0 27.554688-12.363281 27.554688-27.554688 0-15.195312-12.359375-27.554687-27.554688-27.554687h-30.058594c-6.90625 0-12.523437-5.617188-12.523437-12.523438s5.621094-12.523437 12.523437-12.523437h50.097657v-15.03125h-27.550781v-22.542969h-15.03125v22.542969h-7.515626c-15.191406 0-27.550781 12.359375-27.550781 27.554687 0 15.191406 12.359375 27.554688 27.550781 27.554688h30.058594c6.90625 0 12.527344 5.617187 12.527344 12.523437s-5.621094 12.523438-12.527344 12.523438h-50.097656v15.03125h27.554688v22.542969zm0 0"/><path d="m273.023438 106.835938 14.859374-2.242188c-2.332031-15.449219-8.8125-30.050781-18.746093-42.21875l-11.640625 9.503906c8.226562 10.082032 13.597656 22.171875 15.527344 34.957032zm0 0"/><path d="m286.675781 137.253906c1.214844-5.320312 1.929688-10.796875 2.132813-16.277344l-15.019532-.550781c-.167968 4.542969-.761718 9.078125-1.765624 13.484375zm0 0"/><path d="m288.4375 289.808594 13.015625-7.515625 7.511719 13.015625-13.015625 7.515625zm0 0"/><path d="m314.46875 274.777344 13.015625-7.511719 7.511719 13.015625-13.015625 7.511719zm0 0"/><path d="m93.40625 295.316406 7.515625-13.015625 13.015625 7.515625-7.515625 13.015625zm0 0"/><path d="m67.375 280.285156 7.515625-13.015625 13.015625 7.515625-7.515625 13.015625zm0 0"/></svg>