<svg id="Capa_1" enable-background="new 0 0 512.002 512.002"  viewBox="0 0 512.002 512.002" width="54" height="78" xmlns="http://www.w3.org/2000/svg" fill="#FFF"><g><path d="m283.648 63.911-16.841-6.756c-3.842-1.542-8.211.324-9.753 4.168s.324 8.211 4.169 9.753l16.841 6.756c3.753 1.512 8.192-.277 9.753-4.168 1.542-3.843-.325-8.21-4.169-9.753zm205.676 138.55c-.088-.003-.175-.004-.263-.004h-9.71v-114.425c0-48.54-39.49-88.03-88.029-88.03-23.505 0-45.609 9.154-62.245 25.779-16.622 16.632-25.775 38.74-25.775 62.251v332.95c0 41.917-34.103 76.02-76.02 76.02-20.299 0-39.391-7.907-53.754-22.262-14.358-14.367-22.266-33.459-22.266-53.758v-88.636c13.756-3.285 24.124-15.389 24.764-29.983h5.531c12.468 0 22.612-10.144 22.612-22.612 0-5.805-2.2-11.104-5.809-15.112 3.608-4.008 5.809-9.307 5.809-15.112 0-8.136-4.321-15.28-10.787-19.264 3.171-8.21 8.669-15.268 15.89-20.265 31.121-21.545 49.702-56.979 49.702-94.787 0-30.509-11.807-59.262-33.244-80.964-21.419-21.683-49.987-33.841-80.44-34.234-13.501-.172-26.786 1.995-39.467 6.452-3.908 1.374-5.962 5.655-4.589 9.562 1.373 3.908 5.655 5.96 9.562 4.589 11.016-3.872 22.544-5.762 34.299-5.604 26.486.342 51.333 10.917 69.962 29.778 18.646 18.876 28.915 43.886 28.915 70.423 0 32.886-16.164 63.709-43.238 82.453-10.31 7.135-17.993 17.374-22.088 29.25h-12.383v-54.914h9.5c13.509 0 24.5-10.991 24.5-24.5s-10.991-24.5-24.5-24.5-24.5 10.991-24.5 24.5v9.5h-14.5v-9.5c0-13.509-10.991-24.5-24.5-24.5s-24.5 10.991-24.5 24.5 10.991 24.5 24.5 24.5h9.5v54.914h-12.894c-4.115-11.875-11.823-22.137-22.161-29.316-27.103-18.798-43.235-49.691-43.155-82.638.077-30.842 14.178-59.524 38.686-78.692 3.263-2.552 3.839-7.265 1.288-10.528-2.55-3.262-7.265-3.84-10.528-1.288-28.158 22.021-44.358 54.996-44.447 90.47-.092 37.878 18.452 73.393 49.602 94.998 7.256 5.039 12.785 12.126 15.978 20.349-6.46 3.985-10.776 11.125-10.776 19.257 0 5.805 2.2 11.104 5.808 15.112-3.608 4.008-5.808 9.307-5.808 15.112 0 12.468 10.144 22.612 22.612 22.612h5.531c.64 14.593 11.008 26.698 24.763 29.983v88.636c0 24.304 9.466 47.162 26.659 64.365 17.2 17.188 40.057 26.655 64.361 26.655 50.189 0 91.02-40.832 91.02-91.02v-332.951c0-19.506 7.595-37.849 21.382-51.645 13.8-13.791 32.139-21.385 51.639-21.385 40.269 0 73.029 32.761 73.029 73.03v114.425h-8.178c-13.083-.454-24.232 10.426-24.169 23.491v112.442c0 4.142 3.357 7.5 7.5 7.5s7.5-3.358 7.5-7.5v-62.537h17.32v158.51l-8.406 4.797-8.914-5.088v-60.682c0-4.142-3.357-7.5-7.5-7.5s-7.5 3.358-7.5 7.5v60.776c-.005 2.908.621 5.856 1.743 8.477l26.907 62.035c1.912 4.408 6.253 7.283 11.059 7.325h.107c4.775 0 9.127-2.799 11.107-7.153l27.178-59.756c1.247-2.74 1.885-5.656 1.896-8.693v-208.447c.049-13.616-10.124-25.052-22.678-25.493zm-323.062-54.959c0-5.238 4.262-9.5 9.5-9.5s9.5 4.262 9.5 9.5-4.262 9.5-9.5 9.5h-9.5zm-29.5 24.5h14.5v54.914h-14.5zm-24.5-15c-5.238 0-9.5-4.262-9.5-9.5s4.262-9.5 9.5-9.5 9.5 4.262 9.5 9.5v9.5zm-6.294 84.914h75.588c4.197 0 7.612 3.415 7.612 7.612s-3.415 7.612-7.612 7.612h-75.588c-4.197 0-7.612-3.415-7.612-7.612s3.415-7.612 7.612-7.612zm0 45.448c-4.197 0-7.612-3.415-7.612-7.612s3.415-7.612 7.612-7.612h75.588c4.197 0 7.612 3.415 7.612 7.612s-3.415 7.612-7.612 7.612zm20.567 15h34.455c-.732 8.87-8.171 15.869-17.228 15.869-9.056-.001-16.496-6.999-17.227-15.869zm345.357 190.522-16.531-38.112c.187.01.373.036.56.036 1.829 0 3.659-.466 5.291-1.397l10.611-6.056 10.611 6.057c2.091 1.193 4.505 1.612 6.83 1.276zm25.11-59.019-9.277 5.294-8.399-4.794v-158.515h17.677v158.015zm0-173.015h-49.997v-34.905c-.027-4.746 4.059-8.655 8.793-8.495.087.003.173.004.259.004h32.849c4.799.246 8.114 5.674 8.097 10.471v32.925zm-242.688-215.655c1.647 3.852 6.114 5.552 9.844 3.949l17.615-7.528c3.809-1.628 5.577-6.035 3.949-9.844-1.628-3.808-6.035-5.58-9.844-3.949l-17.615 7.528c-3.809 1.628-5.577 6.036-3.949 9.844zm-10.091-13.892c3.756 1.507 8.197-.275 9.753-4.168l6.755-16.841c1.543-3.845-.324-8.211-4.168-9.753-3.845-1.542-8.211.324-9.753 4.168l-6.756 16.841c-1.542 3.844.325 8.21 4.169 9.753zm-209.841-4.169c1.557 3.891 5.988 5.679 9.753 4.168 3.844-1.542 5.71-5.909 4.168-9.753l-6.755-16.841c-1.542-3.843-5.907-5.711-9.753-4.168-3.844 1.542-5.71 5.909-4.168 9.753zm-3.078 34.188c-1.542-3.844-5.906-5.71-9.753-4.168l-16.841 6.755c-3.844 1.542-5.71 5.909-4.168 9.753 1.56 3.89 5.991 5.685 9.753 4.168l16.841-6.756c3.844-1.541 5.71-5.907 4.168-9.752zm-24.718-19.706 17.614 7.528c3.722 1.597 8.196-.094 9.844-3.949 1.628-3.809-.14-8.216-3.949-9.844l-17.615-7.528c-3.809-1.629-8.216.14-9.844 3.949s.141 8.216 3.95 9.844z"/></g></svg>