<svg id="Capa_1" enable-background="new 0 0 512 512" height="80" viewBox="0 0 512 512" width="90" xmlns="http://www.w3.org/2000/svg"  fill="#FFF"><g id="XMLID_1256_"><g id="XMLID_136_"><g id="XMLID_138_"><path id="XMLID_367_" d="m509.071 100.655c-2.527-2.526-6.209-3.515-9.66-2.588l-86.2 23.097c-39.102-45.673-96.088-72.269-157.211-72.269-114.198 0-207.105 92.907-207.105 207.105 0 17.304 2.141 34.455 6.355 51.074l-52.321 52.32c-1.875 1.876-2.929 4.419-2.929 7.071s1.054 5.196 2.929 7.071l37.531 37.531c1.953 1.953 4.512 2.929 7.071 2.929s5.119-.976 7.071-2.929l33.624-33.624c38.959 53.858 100.788 85.662 167.774 85.662 38.817 0 76.662-10.805 109.443-31.248 4.687-2.922 6.116-9.09 3.194-13.777-2.923-4.687-9.091-6.115-13.777-3.194-3.715 2.317-7.503 4.496-11.355 6.537 15.879-19.454 25.417-44.278 25.417-71.29v-22.67h60.035c-3.912 9.469-8.607 18.635-14.07 27.396-2.922 4.687-1.492 10.854 3.194 13.777 1.646 1.026 3.475 1.516 5.282 1.516 3.337 0 6.599-1.67 8.495-4.71 20.442-32.781 31.247-70.626 31.247-109.442 0-16.91-2.046-33.682-6.073-49.948l5.933-5.933 7.179 7.178c2.526 2.526 6.208 3.513 9.659 2.588s6.146-3.62 7.071-7.071l24.785-92.5c.925-3.45-.062-7.132-2.588-9.659zm-99.059 49.071-34.81 34.81h-6.278v-22.67c0-27.046-9.561-51.898-25.476-71.363 26.23 13.863 49.137 33.99 66.564 59.223zm-337.962 140.547c-2.082-11.255-3.156-22.723-3.156-34.273 0-17.842 2.513-35.107 7.199-51.463h66.983v14.71zm105.738-105.736h-14.711v-22.67c0-47.859 36.371-87.379 82.923-92.383v115.053h-11.866l-21.102-21.102c-3.905-3.905-10.237-3.905-14.142 0zm171.135 0h-82.923v-115.053c46.552 5.004 82.923 44.524 82.923 92.383zm-82.923 20h82.923v6.278l-44.255 44.255-38.668-38.667zm-97.624-113.813c-15.807 19.432-25.298 44.198-25.298 71.142v22.67h-59.987c16.701-40.26 47.068-73.468 85.285-93.812zm-65.801 272.371 35.632-35.632h4.87v22.67c0 27.057 9.569 51.919 25.496 71.388-25.953-13.706-48.633-33.553-65.998-58.426zm143.425-55.632h-82.923v-4.87l42.884-42.883 40.039 40.04zm0 135.053c-46.552-5.004-82.923-44.524-82.923-92.383v-22.67h82.923zm102.923-92.383c0 47.859-36.371 87.379-82.923 92.383v-115.053h7.714l23.883 23.883c1.875 1.875 4.419 2.929 7.071 2.929s5.196-1.054 7.071-2.929l23.883-23.883h13.301zm94.182-94.133c0 17.53-2.438 34.838-7.182 51.463h-67.001v-13.301l71.248-71.248c1.939 10.875 2.935 21.944 2.935 33.086zm28.934-75.092-2.002-2.002c-3.905-3.905-10.237-3.904-14.142 0l-151.228 151.227-91.635-91.636c-1.875-1.875-4.419-2.929-7.071-2.929s-5.196 1.054-7.071 2.929l-151.359 151.358-23.389-23.389 181.819-181.818 91.635 91.636c1.875 1.875 4.419 2.929 7.071 2.929s5.196-1.054 7.071-2.929l120.767-120.767c3.905-3.905 3.905-10.237 0-14.142l-3.687-3.687 59.039-15.82z"/><path id="XMLID_366_" d="m395.37 385.37c-2.63 0-5.2 1.07-7.07 2.93-1.86 1.86-2.93 4.44-2.93 7.07 0 2.64 1.07 5.22 2.93 7.08 1.87 1.86 4.44 2.93 7.07 2.93 2.64 0 5.21-1.07 7.07-2.93 1.87-1.86 2.93-4.44 2.93-7.08 0-2.63-1.06-5.21-2.93-7.07-1.86-1.86-4.43-2.93-7.07-2.93z"/></g></g></g></svg>