<svg id="Capa_1" enable-background="new 0 0 512 512" height="80" viewBox="0 0 512 512" width="90" xmlns="http://www.w3.org/2000/svg" fill="#FFF"><g><path d="m216.119 35.206c-1.271-2.541-3.868-4.146-6.709-4.146h-77.66c-4.143 0-7.5 3.357-7.5 7.5v403.81c0 4.143 3.357 7.5 7.5 7.5h138.97c4.143 0 7.5-3.357 7.5-7.5s-3.357-7.5-7.5-7.5h-131.47v-388.81h65.524l13.457 26.924c1.271 2.541 3.868 4.146 6.709 4.146h62.119c2.841 0 5.438-1.605 6.709-4.146l13.457-26.924h65.524v388.81h-69.34c-4.143 0-7.5 3.357-7.5 7.5s3.357 7.5 7.5 7.5h76.84c4.143 0 7.5-3.357 7.5-7.5v-403.81c0-4.143-3.357-7.5-7.5-7.5h-77.66c-2.841 0-5.438 1.605-6.709 4.146l-13.456 26.924h-52.848z"/><path d="m384.8 0h-257.6c-18.753 0-34.01 15.261-34.01 34.02v236.7c0 4.143 3.357 7.5 7.5 7.5s7.5-3.357 7.5-7.5v-236.7c0-10.487 8.527-19.02 19.01-19.02h257.6c10.482 0 19.01 8.532 19.01 19.02v81.391c0 4.143 3.357 7.5 7.5 7.5s7.5-3.357 7.5-7.5v-81.391c0-18.759-15.257-34.02-34.01-34.02z"/><path d="m411.31 140.59c-4.143 0-7.5 3.357-7.5 7.5v329.89c0 10.487-8.527 19.02-19.01 19.02h-257.6c-10.482 0-19.01-8.532-19.01-19.02v-174.58c0-4.143-3.357-7.5-7.5-7.5s-7.5 3.357-7.5 7.5v174.58c0 18.759 15.257 34.02 34.01 34.02h257.6c18.753 0 34.01-15.261 34.01-34.02v-329.89c0-4.143-3.358-7.5-7.5-7.5z"/><path d="m224.938 465.936c-4.143 0-7.5 3.357-7.5 7.5s3.357 7.5 7.5 7.5h62.125c4.143 0 7.5-3.357 7.5-7.5s-3.357-7.5-7.5-7.5z"/><path d="m263.763 46.064c4.143 0 7.5-3.357 7.5-7.5s-3.357-7.5-7.5-7.5h-15.525c-4.143 0-7.5 3.357-7.5 7.5s3.357 7.5 7.5 7.5z"/><path d="m232.438 131.75c0-4.143-3.357-7.5-7.5-7.5h-62.125c-4.143 0-7.5 3.357-7.5 7.5v62.126c0 4.143 3.357 7.5 7.5 7.5h62.125c4.143 0 7.5-3.357 7.5-7.5zm-15 54.626h-47.125v-47.126h47.125z"/><path d="m356.688 193.876v-62.126c0-4.143-3.357-7.5-7.5-7.5h-62.126c-4.143 0-7.5 3.357-7.5 7.5v62.126c0 4.143 3.357 7.5 7.5 7.5h62.126c4.142 0 7.5-3.357 7.5-7.5zm-15-7.5h-47.126v-47.126h47.126z"/><path d="m209.406 232.438c4.143 0 7.5-3.357 7.5-7.5s-3.357-7.5-7.5-7.5h-31.062c-4.143 0-7.5 3.357-7.5 7.5s3.357 7.5 7.5 7.5z"/><path d="m302.593 217.438c-4.143 0-7.5 3.357-7.5 7.5s3.357 7.5 7.5 7.5h31.063c4.143 0 7.5-3.357 7.5-7.5s-3.357-7.5-7.5-7.5z"/><path d="m232.438 349.188v-62.126c0-4.143-3.357-7.5-7.5-7.5h-62.125c-4.143 0-7.5 3.357-7.5 7.5v62.126c0 4.143 3.357 7.5 7.5 7.5h62.125c4.143 0 7.5-3.358 7.5-7.5zm-15-7.5h-47.125v-47.126h47.125z"/><path d="m356.688 349.188v-62.126c0-4.143-3.357-7.5-7.5-7.5h-62.126c-4.143 0-7.5 3.357-7.5 7.5v62.126c0 4.143 3.357 7.5 7.5 7.5h62.126c4.142 0 7.5-3.358 7.5-7.5zm-15-7.5h-47.126v-47.126h47.126z"/><path d="m178.345 372.749c-4.143 0-7.5 3.357-7.5 7.5s3.357 7.5 7.5 7.5h31.063c4.143 0 7.5-3.357 7.5-7.5s-3.357-7.5-7.5-7.5z"/><path d="m302.593 387.749h31.063c4.143 0 7.5-3.357 7.5-7.5s-3.357-7.5-7.5-7.5h-31.063c-4.143 0-7.5 3.357-7.5 7.5s3.357 7.5 7.5 7.5z"/></g></svg>