<svg id="Capa_1" enable-background="new 0 0 511.998 511.998"  viewBox="0 0 511.998 511.998" width="54" height="78" fill="#FFF" xmlns="http://www.w3.org/2000/svg"><g><path d="m450.824 153.219c-4.143 0-7.5 3.357-7.5 7.5v51.664c0 36.429 0 91.48-23.083 144.772-12.593 29.072-30.931 54.877-54.503 76.695-27.827 25.756-63.861 46.846-107.102 62.682-1.701.623-3.575.623-5.274 0-45.447-16.645-82.902-39.083-111.325-66.691-2.971-2.888-7.72-2.816-10.605.154s-2.817 7.72.154 10.605c29.943 29.086 69.18 52.644 116.619 70.018 2.514.92 5.153 1.38 7.794 1.38s5.281-.46 7.795-1.38c45.115-16.523 82.843-38.647 112.134-65.76 25.111-23.242 44.651-50.744 58.077-81.741 24.319-56.146 24.319-113.067 24.319-150.734v-51.664c0-4.143-3.357-7.5-7.5-7.5z"/><path d="m446.481 80.744c-21.911-2.021-39.558-19.369-41.957-41.25-.726-6.619-6.274-11.611-12.907-11.611h-22.789c-4.195-16.025-18.796-27.883-36.118-27.883h-153.423c-17.322 0-31.923 11.858-36.118 27.883h-22.788c-6.633 0-12.182 4.992-12.907 11.611-2.4 21.881-20.046 39.229-41.957 41.25-6.751.622-11.843 6.182-11.843 12.931v118.708c0 49.244 0 131.664 54.84 202.451 1.478 1.908 3.693 2.908 5.934 2.907 1.604 0 3.222-.513 4.588-1.571 3.274-2.536 3.873-7.247 1.336-10.521-22.718-29.325-37.494-63.038-45.172-103.065-6.525-34.018-6.525-65.169-6.525-90.2v-116.893c27.567-3.358 49.67-25.092 53.492-52.608h19.788v15.431c-5.126 1.15-9.501 4.563-11.899 9.476-7.642 15.659-20.525 28.391-36.277 35.848-6.138 2.906-10.104 9.131-10.104 15.856v92.889c0 37.295 0 88.372 21.848 138.812 11.76 27.148 28.895 51.255 50.928 71.647 24.425 22.608 55.777 41.528 93.187 56.234 2.052.807 4.207 1.209 6.363 1.209s4.312-.403 6.364-1.209c37.406-14.705 68.759-33.624 93.186-56.234 22.033-20.393 39.168-44.499 50.928-71.647 21.848-50.439 21.848-101.517 21.848-138.812v-92.889c0-6.726-3.966-12.95-10.104-15.856-15.75-7.456-28.633-20.188-36.276-35.848-2.398-4.914-6.774-8.326-11.9-9.477v-15.43h19.789c3.822 27.517 25.924 49.25 53.492 52.608v31.742c0 4.143 3.357 7.5 7.5 7.5s7.5-3.357 7.5-7.5v-33.558c-.004-6.749-5.096-12.309-11.847-12.931zm-289.527-43.411c0-12.314 10.019-22.333 22.333-22.333h153.423c12.314 0 22.333 10.019 22.333 22.333v295.345c0 12.313-10.019 22.332-22.333 22.332h-153.423c-12.314 0-22.333-10.019-22.333-22.332zm254.847 79.861c.939.445 1.523 1.326 1.523 2.3v92.889c0 35.982 0 85.263-20.611 132.849-10.927 25.226-26.858 47.634-47.354 66.603-23.051 21.337-52.821 39.263-88.483 53.281-.559.219-1.196.219-1.753 0-35.665-14.02-65.436-31.946-88.484-53.281-20.495-18.969-36.427-41.377-47.354-66.603-20.611-47.586-20.611-96.866-20.611-132.849v-92.889c0-.974.584-1.854 1.522-2.3 17.776-8.415 32.487-22.456 41.758-39.755v255.239c0 20.585 16.747 37.332 37.333 37.332h153.423c20.586 0 37.333-16.747 37.333-37.332v-255.241c9.273 17.301 23.983 31.343 41.758 39.757z"/><path d="m179.292 345.149h41.482c4.143 0 7.5-3.357 7.5-7.5s-3.357-7.5-7.5-7.5h-38.955v-290.289h28.646l5.06 12.817c2.647 6.706 9.016 11.039 16.226 11.039h48.488c7.21 0 13.579-4.333 16.227-11.039l5.06-12.817h28.655v63.541l-78.231 78.242-17.227-17.227c-4.25-4.251-9.901-6.593-15.913-6.593-6.011 0-11.663 2.342-15.913 6.592-8.766 8.764-8.768 23.035-.001 31.817l33.14 33.139c4.246 4.248 9.898 6.588 15.914 6.588 6.022 0 11.674-2.343 15.902-6.587l62.329-62.321v163.097h-75.92c-4.143 0-7.5 3.357-7.5 7.5s3.357 7.5 7.5 7.5h78.448c6.877 0 12.472-5.595 12.472-12.472v-295.343c0-6.878-5.595-12.473-12.472-12.473h-32.903c-5.155 0-9.71 3.099-11.602 7.893l-5.691 14.417c-.37.939-1.263 1.547-2.273 1.547h-48.488c-1.01 0-1.902-.607-2.272-1.547l-5.691-14.416c-1.892-4.795-6.446-7.894-11.602-7.894h-32.894c-6.877 0-12.473 5.595-12.473 12.473v295.345c-.001 6.877 5.595 12.471 12.472 12.471zm77.943-126.374c-1.403 1.409-3.28 2.185-5.286 2.185-2.008 0-3.893-.779-5.307-2.194l-33.136-33.135c-2.924-2.929-2.926-7.687-.004-10.607 1.417-1.418 3.302-2.199 5.307-2.199 2.004 0 3.889.781 5.306 2.199l22.53 22.53c1.407 1.406 3.314 2.196 5.304 2.196s3.897-.79 5.304-2.197l72.928-72.937v21.225z"/><path d="m301.844 305.344c0-4.143-3.357-7.5-7.5-7.5h-76.697c-4.143 0-7.5 3.357-7.5 7.5s3.357 7.5 7.5 7.5h76.697c4.142 0 7.5-3.358 7.5-7.5z"/><path d="m250.232 39.373h11.532c4.143 0 7.5-3.357 7.5-7.5s-3.357-7.5-7.5-7.5h-11.532c-4.143 0-7.5 3.357-7.5 7.5s3.358 7.5 7.5 7.5z"/><path d="m232.254 398.862c-4.143 0-7.5 3.357-7.5 7.5v.104c0 4.143 3.357 7.5 7.5 7.5s7.5-3.357 7.5-7.5v-.104c0-4.142-3.358-7.5-7.5-7.5z"/><path d="m255.999 398.862c-4.143 0-7.5 3.357-7.5 7.5v.104c0 4.143 3.357 7.5 7.5 7.5s7.5-3.357 7.5-7.5v-.104c0-4.142-3.357-7.5-7.5-7.5z"/><path d="m279.744 398.862c-4.143 0-7.5 3.357-7.5 7.5v.104c0 4.143 3.357 7.5 7.5 7.5s7.5-3.357 7.5-7.5v-.104c0-4.142-3.357-7.5-7.5-7.5z"/></g></svg>