<svg viewBox="0 -29 512 511" xmlns="http://www.w3.org/2000/svg" width="54" height="78"><path d="m0 .5v452.046875h512v-452.046875zm482 30v67.402344h-452v-67.402344zm-452 392.046875v-294.644531h452v294.644531zm0 0"/><path d="m48.703125 49.203125h30v30h-30zm0 0"/><path d="m96.992188 49.203125h30v30h-30zm0 0"/><path d="m145.285156 49.203125h30v30h-30zm0 0"/><path d="m346.894531 237.300781 17.335938-25.5625-44.742188-44.742187-25.5625 17.332031c-.15625-.0625-.316406-.128906-.472656-.195313l-5.816406-30.332031h-63.273438l-5.816406 30.332031c-.15625.066407-.316406.132813-.472656.195313l-25.5625-17.332031-44.742188 44.742187 17.335938 25.5625c-.066407.15625-.132813.3125-.195313.46875l-30.335937 5.816407v63.277343l30.335937 5.816407c.0625.15625.128906.3125.195313.472656l-17.335938 25.558594 44.742188 44.742187 25.5625-17.332031c.15625.066406.316406.128906.472656.195312l5.816406 30.332032h63.273438l5.816406-30.332032c.15625-.0625.316406-.128906.472656-.195312l25.5625 17.332031 44.742188-44.742187-17.335938-25.558594c.066407-.160156.132813-.316406.195313-.472656l30.335937-5.816407v-63.277343l-30.335937-5.816407c-.0625-.15625-.128906-.3125-.195313-.46875zm.527344 44.769531-23.269531 4.460938-2.636719 8.660156c-1.28125 4.21875-2.988281 8.332032-5.070313 12.230469l-4.265624 7.988281 13.304687 19.621094-9.679687 9.679688-19.621094-13.308594-7.988282 4.269531c-3.898437 2.082031-8.011718 3.789063-12.230468 5.070313l-8.660156 2.636718-4.460938 23.269532h-13.6875l-4.464844-23.269532-8.660156-2.636718c-4.214844-1.28125-8.332031-2.988282-12.226562-5.070313l-7.992188-4.269531-19.621094 13.308594-9.675781-9.679688 13.304687-19.621094-4.265624-7.988281c-2.082032-3.898437-3.789063-8.015625-5.074219-12.230469l-2.632813-8.660156-23.273437-4.460938v-13.6875l23.273437-4.464843 2.632813-8.660157c1.285156-4.21875 2.992187-8.332031 5.074219-12.230468l4.265624-7.988282-13.304687-19.621093 9.675781-9.679688 19.621094 13.308594 7.992188-4.269531c3.894531-2.082032 8.011718-3.785156 12.226562-5.070313l8.660156-2.636719 4.464844-23.269531h13.6875l4.460938 23.269531 8.660156 2.636719c4.21875 1.285157 8.332031 2.988281 12.230468 5.070313l7.988282 4.269531 19.621094-13.308594 9.679687 9.679688-13.304687 19.621093 4.265624 7.988282c2.082032 3.898437 3.789063 8.015625 5.070313 12.230468l2.636719 8.660157 23.269531 4.464843zm0 0"/><path d="m256 230.242188c-24.804688 0-44.980469 20.179687-44.980469 44.984374 0 24.800782 20.175781 44.980469 44.980469 44.980469s44.980469-20.179687 44.980469-44.980469c0-24.804687-20.175781-44.984374-44.980469-44.984374zm0 59.964843c-8.261719 0-14.980469-6.722656-14.980469-14.980469 0-8.261718 6.71875-14.984374 14.980469-14.984374s14.980469 6.722656 14.980469 14.984374c0 8.257813-6.71875 14.980469-14.980469 14.980469zm0 0"/></svg>