<?xml version="1.0" encoding="utf-8"?>
<!-- Generator: Adobe Illustrator 21.0.0, SVG Export Plug-In . SVG Version: 6.00 Build 0)  -->
<svg version="1.1" id="bold" xmlns="http://www.w3.org/2000/svg" xmlns:xlink="http://www.w3.org/1999/xlink" x="0px" y="0px"
	 viewBox="0 0 32 32" enable-background="new 0 0 32 32" xml:space="preserve" width="54" height="78" fill="#FFF">
<path d="M23.5,8C23.224,8,23,7.776,23,7.5v-1C23,6.224,23.224,6,23.5,6H24c0.552,0,1-0.449,1-1s-0.448-1-1-1h-1
	c-0.552,0-1,0.449-1,1c0,0.276-0.224,0.5-0.5,0.5S21,5.276,21,5c0-1.103,0.897-2,2-2h1c1.103,0,2,0.897,2,2s-0.897,2-2,2v0.5
	C24,7.776,23.776,8,23.5,8z"/>
<circle cx="23.5" cy="9.5" r="0.5"/>
<g>
	<path d="M8,19c-1.484,0-2.72-1.083-2.958-2.5H0.5C0.224,16.5,0,16.276,0,16V2.5C0,1.122,1.122,0,2.5,0H16
		c0.276,0,0.5,0.224,0.5,0.5v5C16.5,5.776,16.276,6,16,6c-1.103,0-2,0.897-2,2s0.897,2,2,2c0.276,0,0.5,0.224,0.5,0.5V16
		c0,0.276-0.224,0.5-0.5,0.5h-5.042C10.72,17.917,9.484,19,8,19z M1,15.5h4.5C5.776,15.5,6,15.724,6,16c0,1.103,0.897,2,2,2
		s2-0.897,2-2c0-0.276,0.224-0.5,0.5-0.5h5v-4.542C14.083,10.72,13,9.484,13,8s1.083-2.72,2.5-2.958V1h-13C1.673,1,1,1.673,1,2.5
		V15.5z"/>
</g>
<g>
	<path d="M29.5,32H16c-0.276,0-0.5-0.224-0.5-0.5v-5c0-0.276,0.224-0.5,0.5-0.5c1.103,0,2-0.897,2-2s-0.897-2-2-2
		c-0.276,0-0.5-0.224-0.5-0.5V16c0-0.276,0.224-0.5,0.5-0.5h5.042C21.28,14.083,22.517,13,24,13s2.72,1.083,2.958,2.5H31.5
		c0.276,0,0.5,0.224,0.5,0.5v13.5C32,30.878,30.879,32,29.5,32z M16.5,31h13c0.827,0,1.5-0.673,1.5-1.5v-13h-4.5
		c-0.276,0-0.5-0.224-0.5-0.5c0-1.103-0.897-2-2-2s-2,0.897-2,2c0,0.276-0.224,0.5-0.5,0.5h-5v4.542C17.917,21.28,19,22.516,19,24
		s-1.083,2.72-2.5,2.958V31z"/>
</g>
<path d="M16.5,21.042V16c0-0.276-0.224-0.5-0.5-0.5h-5.5c-0.276,0-0.5,0.224-0.5,0.5c0,1.103-0.897,2-2,2s-2-0.897-2-2
	c0-0.276-0.224-0.5-0.5-0.5h-5C0.224,15.5,0,15.724,0,16v13.5C0,30.878,1.122,32,2.5,32H16c0.276,0,0.5-0.224,0.5-0.5v-4.542
	C17.917,26.72,19,25.484,19,24S17.917,21.28,16.5,21.042z"/>
</svg>
