<svg  viewBox="0 0 512 512" width="54" height="78"  xmlns="http://www.w3.org/2000/svg"><path d="m0 248.5h54v15h-54zm0 0"/><path d="m458 248.5h54v15h-54zm0 0"/><path d="m248.5 458h15v54h-15zm0 0"/><path d="m475.140625 217.296875 14.773437-2.59375c-8.921874-50.871094-34.875-98.261719-73.070312-133.441406l-10.160156 11.035156c35.789062 32.960937 60.097656 77.351563 68.457031 125zm0 0"/><path d="m294.703125 36.859375c36.847656 6.464844 71.769531 22.355469 100.992187 45.960937l9.425782-11.671874c-31.195313-25.195313-68.480469-42.164063-107.824219-49.0625zm0 0"/><path d="m217.296875 36.859375-2.59375-14.773437c-39.339844 6.902343-76.628906 23.867187-107.824219 49.066406l9.425782 11.667968c29.222656-23.605468 64.144531-39.496093 100.992187-45.960937zm0 0"/><path d="m22.085938 214.703125 14.773437 2.59375c8.359375-47.648437 32.667969-92.039063 68.457031-125l-10.160156-11.035156c-38.199219 35.179687-64.148438 82.570312-73.070312 133.441406zm0 0"/><path d="m294.703125 475.140625 2.59375 14.773437c39.339844-6.898437 76.625-23.867187 107.824219-49.0625l-9.425782-11.671874c-29.226562 23.605468-64.148437 39.496093-100.992187 45.960937zm0 0"/><path d="m406.683594 419.703125 10.160156 11.035156c38.195312-35.179687 64.148438-82.570312 73.070312-133.441406l-14.773437-2.59375c-8.359375 47.648437-32.667969 92.039063-68.457031 125zm0 0"/><path d="m106.878906 440.851562c31.199219 25.195313 68.484375 42.164063 107.824219 49.0625l2.59375-14.773437c-36.847656-6.460937-71.769531-22.355469-100.992187-45.960937zm0 0"/><path d="m36.859375 294.703125-14.773437 2.59375c8.921874 50.871094 34.875 98.261719 73.070312 133.441406l10.160156-11.035156c-35.789062-32.960937-60.097656-77.351563-68.457031-125zm0 0"/><path d="m248.5 0h15v54h-15zm0 0"/><path d="m316.382812 174.402344c-3-4.257813-6.238281-8.425782-9.617187-12.390625l-11.414063 9.734375c3.082032 3.613281 6.035157 7.417968 8.769532 11.300781zm0 0"/><path d="m211.5 127.671875-75.796875 68.628906 26.691406 52.105469 67.261719-25.714844 6.753906 17.8125-64.953125 75.945313 17.84375 49.066406c-20.355469.378906-36.800781 17.042969-36.800781 37.484375v17.5h215v-17.5c0-20.316406-16.242188-36.898438-36.425781-37.472656 10.761719-25.894532 16.425781-54.039063 16.425781-82.046875v-10.953125c0-29.753906-7.839844-59.113282-22.679688-84.90625l-13 7.480468c13.53125 23.519532 20.679688 50.292969 20.679688 77.425782v10.953125c0 28.121093-6.144531 56.394531-17.769531 82.019531h-60.445313v15h75.714844c12.40625 0 22.5 10.09375 22.5 22.5v2.5h-185v-2.5c0-12.40625 10.09375-22.5 22.5-22.5h49.285156v-15h-34.03125l-16.710937-45.949219 65.046875-76.054687-15.242188-40.1875-68.738281 26.28125-15.3125-29.890625 72.203125-65.375v-38.785157c11.53125 3.273438 20 13.898438 20 26.460938v11.492188l3.964844 2.121093c12.867187 6.882813 24.679687 15.527344 35.113281 25.691407l10.46875-10.746094c-10.363281-10.09375-21.96875-18.820313-34.546875-25.984375v-2.574219c0-23.433594-19.0625-42.5-42.5-42.5h-7.5zm0 0"/><path d="m363.867188 240.96875c.792968 4.714844 1.417968 9.527344 1.851562 14.296875l14.9375-1.359375c-.46875-5.144531-1.140625-10.335938-1.996094-15.425781zm0 0"/><path d="m343.585938 182.148438c7.65625 14.09375 13.492187 29.136718 17.351562 44.703124l14.558594-3.605468c-4.164063-16.804688-10.464844-33.042969-18.726563-48.253906zm0 0"/><path d="m357.707031 346.6875 14.4375 4.070312c1.390625-4.933593 2.644531-9.984374 3.734375-15.003906l-14.664062-3.171875c-1.019532 4.722657-2.199219 9.464844-3.507813 14.105469zm0 0"/><path d="m381.5 283.480469v-10.957031c0-1.027344-.007812-2.050782-.023438-3.078126l-14.996093.222657c.011719.953125.019531 1.910156.019531 2.859375v10.953125c0 11.546875-.890625 23.257812-2.652344 34.808593l14.828125 2.261719c1.875-12.296875 2.824219-24.765625 2.824219-37.070312zm0 0"/><path d="m318.773438 146.808594 11.207031-9.96875c-11.492188-12.925782-24.625-24.367188-39.027344-34.003906l-8.339844 12.464843c13.34375 8.929688 25.507813 19.53125 36.160157 31.507813zm0 0"/><path d="m327.9375 157.945312c2.898438 3.808594 5.6875 7.78125 8.289062 11.804688l12.59375-8.144531c-2.804687-4.34375-5.816406-8.632813-8.945312-12.742188zm0 0"/><path d="m222.5 335.5h15v15h-15zm0 0"/><path d="m252.5 335.5h15v15h-15zm0 0"/><path d="m282.5 335.5h15v15h-15zm0 0"/><path d="m211 168.5h15v15h-15zm0 0"/></svg>