<svg id="Capa_1" enable-background="new 0 0 512 512"  viewBox="0 0 512 512" width="54" height="78" xmlns="http://www.w3.org/2000/svg"><g><path d="m343.891 279.579-69.098 63.417 49.947-119.95h80.75l-35.534 32.612c-3.052 2.801-3.255 7.545-.454 10.597 2.799 3.051 7.544 3.256 10.597.454l40.841-37.482c7.88-7.233 9.312-18.956 3.404-27.875l-44.427-67.075c-6.689-10.1-17.916-16.13-30.03-16.13h-192.207c-12.115 0-23.341 6.03-30.031 16.13l-44.427 67.074c-5.907 8.92-4.475 20.644 3.405 27.876l153.893 141.24c7.559 6.938 18.964 6.943 26.526 0l86.988-79.837c3.052-2.801 3.255-7.545.454-10.597-2.8-3.051-7.544-3.256-10.597-.454zm-213.007-123.022 41.31 51.489h-75.414zm279.901 51.489h-75.414l41.31-51.489zm-208.153 0 51.151-69.715 51.151 69.715zm105.86 15-54.709 131.388-54.709-131.388zm-125.666 0 49.947 119.95-130.696-119.95zm185.159-79.619-47.98 59.804-51.421-70.084h81.303c12.648-.001 17.836 10.035 18.098 10.28zm-210.305-10.281h81.302l-51.421 70.083-47.981-59.804c.277-.257 5.446-10.279 18.1-10.279z"/><path d="m475.443 332.604-45.155-57.245c-2.394-3.033-5.981-4.772-9.846-4.772-3.863 0-7.451 1.739-9.845 4.773l-45.154 57.243c-3.002 3.804-3.553 8.876-1.439 13.236s6.438 7.069 11.283 7.069h18.64v57.329c0 6.914 5.625 12.539 12.539 12.539h27.954c6.914 0 12.539-5.625 12.539-12.539v-57.329h18.639c4.847 0 9.17-2.709 11.284-7.069 2.113-4.36 1.562-9.431-1.439-13.235zm-30.945 5.305c-6.914 0-12.539 5.625-12.539 12.54v57.328h-23.032v-57.328c0-6.915-5.625-12.54-12.54-12.54h-16.023l40.079-50.811 40.08 50.811z"/><path d="m57.536 76.881h10.347v32.817c0 6.915 5.625 12.54 12.539 12.54h24.658c6.915 0 12.54-5.625 12.54-12.54v-32.817h10.347c4.657 0 8.904-2.557 11.083-6.673 2.179-4.115 1.906-9.064-.712-12.916l-35.216-51.803c-2.337-3.437-6.214-5.489-10.37-5.489s-8.033 2.052-10.37 5.489l-35.216 51.803c-2.618 3.852-2.891 8.801-.712 12.916 2.179 4.116 6.426 6.673 11.082 6.673zm35.216-59.965 30.567 44.965h-8.159c-6.915 0-12.54 5.625-12.54 12.54v32.817h-19.736v-32.817c0-6.915-5.625-12.54-12.54-12.54h-8.159z"/><path d="m116.405 302.76c-2.354-3.181-6.122-5.079-10.079-5.079s-7.725 1.898-10.079 5.079l-59.929 80.969c-2.834 3.829-3.263 8.85-1.119 13.104s6.434 6.896 11.197 6.896h28.491v30.59c0 4.143 3.358 7.5 7.5 7.5s7.5-3.357 7.5-7.5v-33.051c0-6.914-5.625-12.539-12.54-12.539h-26.067l55.047-74.373 55.047 74.373h-26.069c-6.915 0-12.54 5.625-12.54 12.539v95.732h-32.877v-27.682c0-4.143-3.358-7.5-7.5-7.5s-7.5 3.357-7.5 7.5v30.143c0 6.914 5.625 12.539 12.54 12.539h37.798c6.915 0 12.54-5.625 12.54-12.539v-95.732h28.49c4.763 0 9.054-2.643 11.198-6.896 2.144-4.254 1.715-9.274-1.119-13.104z"/></g></svg>