<svg  viewBox="0 -48 512 512" width="54" height="78" fill="#FFF" xmlns="http://www.w3.org/2000/svg"><path d="m62.53125 341.699219v-76.148438h27.386719l1.632812-.851562c.410157-.21875 41.726563-21.570313 81.816407-21.570313 7.113281 0 13.835937.679688 19.976562 2.019532l3.199219-14.660157c-7.191407-1.570312-14.988281-2.367187-23.175781-2.367187-39.546876 0-78.492188 18.160156-87.089844 22.425781h-23.746094v-19.433594h-62.53125v15.007813h47.523438v115.058594h-47.523438v15.003906h62.53125v-19.476563h43.878906l58.640625 18.546875 4.527344-14.308594-60.851563-19.246093zm0 0"/><path d="m507.066406 272.875c-10.402344-14.5625-27.304687-23.257812-45.214844-23.257812-9.238281 0-18.421874 2.347656-26.558593 6.785156l-83.566407 45.582031c-3.433593-13.683594-15.835937-23.847656-30.570312-23.847656h-68.007812c-4.007813-8.101563-12.371094-23.53125-20.578126-29.59375-5.972656-5.398438-12.824218-9.792969-20.371093-13.058594l-5.960938 13.773437c6.152344 2.664063 11.714844 6.25 16.535157 10.65625l.363281.335938.40625.28125c5.171875 3.613281 13.671875 18.6875 18.058593 28.238281l2.007813 4.375h77.546875c9.105469 0 16.511719 7.40625 16.511719 16.507813 0 9.105468-7.40625 16.507812-16.511719 16.507812h-102.046875v15.007813h102.046875c13.972656 0 25.84375-9.140625 29.964844-21.753907l91.359375-49.835937c5.941406-3.238281 12.636719-4.953125 19.371093-4.953125 10.519532 0 20.558594 4.109375 28.035157 11.246094l-198.410157 123.632812-107.589843-34.03125-4.527344 14.308594 114.183594 36.117188 218.457031-136.121094zm0 0"/><path d="m305.148438 15.007812c49.078124 0 93.632812 27.542969 122.363281 50.648438 23.707031 19.058594 40.875 38.347656 48.054687 46.898438-9.339844 11.125-35.589844 40.417968-71.410156 63.960937l8.242188 12.539063c47.050781-30.921876 77.519531-70.269532 78.792968-71.929688l3.507813-4.570312-3.507813-4.566407c-.847656-1.101562-21.082031-27.28125-53.992187-53.800781-43.988281-35.449219-89.648438-54.1875-132.050781-54.1875-29.246094 0-59.605469 8.65625-90.238282 25.730469l7.304688 13.109375c28.375-15.816406 56.277344-23.832032 82.933594-23.832032zm0 0"/><path d="m173.101562 170.921875c43.988282 35.449219 89.648438 54.1875 132.046876 54.1875 30.5 0 62.167968-9.398437 94.121093-27.933594l-7.53125-12.980469c-29.636719 17.191407-58.769531 25.90625-86.589843 25.90625-49.074219 0-93.628907-27.539062-122.359376-50.644531-23.699218-19.058593-40.867187-38.34375-48.046874-46.898437 9.675781-11.503906 37.449218-42.433594 74.945312-66.25l-8.046875-12.667969c-48.945313 31.089844-81.175781 72.582031-82.523437 74.335937l-3.519532 4.570313 3.511719 4.574219c.84375 1.105468 21.082031 27.28125 53.992187 53.800781zm0 0"/><path d="m357.441406 69.8125 11.609375-9.507812c-3.480469-4.25-7.398437-8.167969-11.644531-11.644532l-9.507812 11.609375c3.480468 2.851563 6.691406 6.0625 9.542968 9.542969zm0 0"/><path d="m222.609375 112.554688c0 45.515624 37.027344 82.542968 82.539063 82.542968 45.515624 0 82.542968-37.027344 82.542968-82.542968 0-13.414063-3.292968-26.738282-9.527344-38.527344l-13.265624 7.015625c5.09375 9.636719 7.785156 20.53125 7.785156 31.511719 0 37.238281-30.296875 67.535156-67.535156 67.535156-37.238282 0-67.53125-30.296875-67.53125-67.535156 0-37.238282 30.292968-67.53125 67.53125-67.53125 10.984374 0 21.882812 2.691406 31.515624 7.785156l7.015626-13.265625c-11.789063-6.234375-25.113282-9.527344-38.53125-9.527344-45.511719 0-82.539063 37.027344-82.539063 82.539063zm0 0"/><path d="m305.148438 65.03125c-26.203126 0-47.523438 21.320312-47.523438 47.523438 0 26.203124 21.320312 47.523437 47.523438 47.523437 26.207031 0 47.523437-21.320313 47.523437-47.523437 0-26.203126-21.316406-47.523438-47.523437-47.523438zm0 80.039062c-17.929688 0-32.515626-14.585937-32.515626-32.515624 0-17.929688 14.585938-32.515626 32.515626-32.515626 17.929687 0 32.519531 14.585938 32.519531 32.515626 0 17.929687-14.589844 32.515624-32.519531 32.515624zm0 0"/><path d="m297.648438 105.050781h15.003906v15.007813h-15.003906zm0 0"/><path d="m16.507812 291.632812h15.007813v15.007813h-15.007813zm0 0"/><path d="m16.507812 261.617188h15.007813v15.007812h-15.007813zm0 0"/><path d="m117.859375 285.703125c4.433594-1.789063 9.015625-3.445313 13.613281-4.925781l-4.601562-14.285156c-4.9375 1.589843-9.855469 3.371093-14.617188 5.289062zm0 0"/><path d="m188.515625 259.503906c-4.652344-.898437-9.746094-1.355468-15.140625-1.355468-.003906 0-.003906 0-.007812 0-9.46875 0-20.070313 1.386718-31.496094 4.121093l3.492187 14.597657c10.289063-2.464844 19.707031-3.710938 28.007813-3.710938h.003906c4.441406 0 8.578125.363281 12.292969 1.082031zm0 0"/></svg>