<svg viewBox="0 -29 512 511" height="80" width="90" xmlns="http://www.w3.org/2000/svg"  fill="#FFF" ><path d="m176.738281 210.945312-64.28125 64.28125 64.28125 64.277344 21.210938-21.210937-43.066407-43.066407 43.066407-43.070312zm0 0"/><path d="m314.050781 232.15625 43.066407 43.070312-43.066407 43.066407 21.210938 21.210937 64.28125-64.277344-64.28125-64.28125zm0 0"/><path d="m228 329.9375 26.753906-116.183594 29.234375 6.734375-26.753906 116.179688zm0 0"/><path d="m0 .5v452.046875h512v-452.046875zm482 30v67.402344h-452v-67.402344zm-452 392.046875v-294.644531h452v294.644531zm0 0"/><path d="m48.703125 49.203125h30v30h-30zm0 0"/><path d="m96.992188 49.203125h30v30h-30zm0 0"/><path d="m145.285156 49.203125h30v30h-30zm0 0"/></svg>