<svg id="Capa_1" enable-background="new 0 0 512 512" viewBox="0 0 512 512" xmlns="http://www.w3.org/2000/svg" width="54" height="78" fill="#FFF"><g><path d="m263.075 452h-210.575c-4.142 0-7.5 3.358-7.5 7.5s3.358 7.5 7.5 7.5h210.575c4.142 0 7.5-3.358 7.5-7.5s-3.358-7.5-7.5-7.5zm-210.575-406c-4.142 0-7.5 3.358-7.5 7.5s3.358 7.5 7.5 7.5 7.5-3.358 7.5-7.5-3.358-7.5-7.5-7.5zm210.575 368.5h-210.575c-4.142 0-7.5 3.358-7.5 7.5s3.358 7.5 7.5 7.5h210.575c4.142 0 7.5-3.358 7.5-7.5s-3.358-7.5-7.5-7.5zm-180.575-368.5c-4.142 0-7.5 3.358-7.5 7.5s3.358 7.5 7.5 7.5 7.5-3.358 7.5-7.5-3.358-7.5-7.5-7.5zm173.575 287.425h-196.575c-7.995 0-14.5 6.505-14.5 14.5v29.575c0 7.995 6.505 14.5 14.5 14.5h196.575c7.995 0 14.5-6.505 14.5-14.5v-29.575c0-7.995-6.505-14.5-14.5-14.5zm-.5 43.575h-195.575v-28.575h195.575zm218.925-377h-437c-20.678 0-37.5 16.822-37.5 37.5v437c0 20.678 16.822 37.5 37.5 37.5h437c20.678 0 37.5-16.822 37.5-37.5v-437c0-20.678-16.822-37.5-37.5-37.5zm22.5 92h-381.34c-4.142 0-7.5 3.358-7.5 7.5s3.358 7.5 7.5 7.5h381.34v367.5c0 12.407-10.093 22.5-22.5 22.5h-437c-12.407 0-22.5-10.093-22.5-22.5v-367.5h65.66c4.142 0 7.5-3.358 7.5-7.5s-3.358-7.5-7.5-7.5h-65.66v-54.5c0-12.407 10.093-22.5 22.5-22.5h437c12.407 0 22.5 10.093 22.5 22.5zm-181.925 375h137.425c8.005-.005 14.506-6.587 14.5-14.5v-84.788c0-4.142-3.358-7.5-7.5-7.5s-7.5 3.358-7.5 7.5v58.877l-59.896-124.589 59.896-124.59v155.302c0 4.142 3.358 7.5 7.5 7.5s7.5-3.358 7.5-7.5v-181.212c.013-7.888-6.495-14.495-14.5-14.5h-137.425c-8.023-.005-14.492 6.603-14.5 14.5v301c-.007 7.924 6.519 14.494 14.5 14.5zm132.498-15h-127.581l63.79-132.69zm0-300-63.79 132.69-63.791-132.69zm-131.998 25.43 59.886 124.57-59.886 124.57zm-203.075-131.43c-4.142 0-7.5 3.358-7.5 7.5s3.358 7.5 7.5 7.5 7.5-3.358 7.5-7.5-3.358-7.5-7.5-7.5zm-67.5 105.5v137.425c-.001 8.004 6.573 14.491 14.5 14.5h196.575c3.569 0 6.836-1.302 9.365-3.449.099-.082.191-.172.286-.26 2.968-2.657 4.85-6.504 4.85-10.792v-137.424c-.004-7.996-6.544-14.499-14.5-14.5h-196.576c-7.942 0-14.498 6.51-14.5 14.5zm30.785 136.925 82-58.972 82 58.972zm179.79-7.12-84.944-61.09 84.944-61.09zm-15.783-129.305-82.007 58.977-82.006-58.977zm-179.792 7.129 84.94 61.087-84.94 61.086z"/></g></svg>