<?xml version="1.0" encoding="utf-8"?>
<!-- Generator: Adobe Illustrator 28.5.0, SVG Export Plug-In . SVG Version: 9.03 Build 54727)  -->
<svg version="1.0" id="Layer_1" xmlns="http://www.w3.org/2000/svg" xmlns:xlink="http://www.w3.org/1999/xlink" x="0px" y="0px"
	 viewBox="0 0 64 64" style="enable-background:new 0 0 64 64;" width="57" height="80" xml:space="preserve">
<style type="text/css">
	.st0{fill:#31323A;}
</style>
<path class="st0" d="M27.2,61.7c0,0-8.2-9.1-2.2-16.4c0,0-0.3,6.8,5.9,6.6c3.9-0.1,7-3.8,0.9-9.8C28,38.4,25.8,29.7,34,27.5
	c0,0-4.8,5.2,1.1,9.7c12.7,9.6,12.9,16.6,5.6,24.5c0,0,27.1-9.2,11.3-33.5c-4.5-7-4.3-15.3,3.4-14.3c0,0-8.6-5.2-13.7,6.4
	c-2.4,5.4-8.4-0.5-3-7.2C43,7.9,35.2,2.4,32,2.3c0,0,5.5,4.6-1,10.6c-7.5,6.9-8.8,9.1-7,15.7c1.8,6.5-6.1,9.7-9.5,3
	c-4-8.2,2.1-13.1,2.1-13.1S4.1,21,7.6,41.1C9.8,54.2,18.9,59.2,27.2,61.7z"/>
</svg>
